<?xml version="1.0" encoding="iso-8859-1"?>
<!-- Generator: Adobe Illustrator 22.0.1, SVG Export Plug-In . SVG Version: 6.00 Build 0)  -->
<svg version="1.1" xmlns="http://www.w3.org/2000/svg" xmlns:xlink="http://www.w3.org/1999/xlink" x="0px" y="0px"
	 viewBox="0 0 23 19" style="enable-background:new 0 0 23 19;" xml:space="preserve">
<g id="light_purple_2623_UP">
</g>
<g id="puprle_gradient_2755UP">
</g>
<g id="shadow_476_UP">
</g>
<g id="light_gold_4525UP">
</g>
<g id="gold_gradient_476_UP">
	<path style="fill:#6A3C7C;" d="M21.616,4.171L5.736,4.168L5.071,1.921c-0.099-0.335-0.374-0.6-0.718-0.691L2.023,0.613
		C1.936,0.589,1.845,0.578,1.755,0.578c-0.462,0-0.87,0.306-0.99,0.744C0.693,1.581,0.729,1.853,0.866,2.086
		c0.137,0.233,0.357,0.4,0.622,0.47l1.773,0.47l3.599,12.729c-0.513,0.248-0.845,0.762-0.845,1.334c0,0.821,0.681,1.488,1.518,1.488
		c0.837,0,1.518-0.668,1.518-1.488c0-0.019,0-0.039-0.001-0.058h7.326c-0.001,0.019-0.001,0.039-0.001,0.058
		c0,0.821,0.681,1.488,1.518,1.488c0.837,0,1.518-0.668,1.518-1.488c0-0.754-0.585-1.386-1.333-1.477
		c-1.821-0.288-9.252-0.641-9.252-0.641l-0.244-0.937h9.272c0.474,0,0.896-0.313,1.025-0.76l2.004-6.922h0.736
		c0.614,0,1.113-0.489,1.113-1.091C22.729,4.66,22.231,4.171,21.616,4.171L21.616,4.171z M9.806,11.719H8.068
		c-0.048-0.001-0.117,0.01-0.149-0.1c-0.04-0.139-0.097-0.33-0.097-0.33L6.459,6.582C6.453,6.56,6.457,6.535,6.472,6.516
		c0.015-0.019,0.038-0.03,0.062-0.03h2.112c0.037,0,0.068,0.025,0.076,0.06l1.152,5.059l0.004,0.015
		c0.002,0.007,0.003,0.015,0.003,0.022C9.883,11.684,9.848,11.718,9.806,11.719L9.806,11.719z M14.241,6.578l-0.939,5.08
		c-0.008,0.035-0.039,0.06-0.076,0.06h-1.311c-0.037,0-0.068-0.025-0.076-0.06L10.9,6.578c-0.005-0.023,0-0.046,0.015-0.065
		c0.015-0.018,0.037-0.029,0.061-0.029h3.188c0.024,0,0.046,0.01,0.061,0.029C14.241,6.532,14.247,6.556,14.241,6.578L14.241,6.578z
		 M18.682,6.583l-1.471,5.08c-0.01,0.033-0.04,0.056-0.075,0.056h-1.799c-0.024,0-0.046-0.01-0.061-0.029
		c-0.015-0.018-0.02-0.042-0.015-0.065l1.157-5.08c0.008-0.035,0.04-0.06,0.076-0.06h2.112c0.024,0,0.048,0.011,0.062,0.03
		C18.684,6.535,18.689,6.56,18.682,6.583L18.682,6.583z M18.682,6.583"/>
</g>
</svg>
