<?xml version="1.0" encoding="iso-8859-1"?>
<!-- Generator: Adobe Illustrator 22.0.1, SVG Export Plug-In . SVG Version: 6.00 Build 0)  -->
<svg version="1.1" xmlns="http://www.w3.org/2000/svg" xmlns:xlink="http://www.w3.org/1999/xlink" x="0px" y="0px"
	 viewBox="0 0 193 96" style="enable-background:new 0 0 193 96;" xml:space="preserve">
<g id="light_purple_2623_UP">
</g>
<g id="puprle_gradient_2755UP">
</g>
<g id="shadow_476_UP">
</g>
<g id="light_gold_4525UP">
</g>
<g id="gold_gradient_476_UP">
	<g>
		<path style="fill:#633D78;" d="M180.785,56.247c-2.574,0-4.829,1.379-6.08,3.433c-1.173-0.643-2.421-1.36-3.679-2.146
			c2.285-2.088,4.426-4.348,6.546-7.666l-0.959-0.608c-2.115,3.315-4.293,5.566-6.595,7.634c-3.454-2.249-6.666-5.236-8.348-8.022
			l-0.97,0.585c1.747,2.897,4.954,5.932,8.419,8.222c-0.52,0.439-1.387,1.193-1.879,1.57c-1.195-1.279-2.89-2.083-4.771-2.083
			c-3.609,0-6.54,2.933-6.54,6.542c0,3.605,2.932,6.545,6.54,6.545c3.607,0,6.544-2.939,6.544-6.545
			c0-1.311-0.394-2.525-1.056-3.551c0.586-0.452,1.554-1.285,2.18-1.821c1.385,0.875,2.767,1.672,4.052,2.375
			c-0.33,0.819-0.517,1.716-0.517,2.652c0,3.922,3.192,7.115,7.114,7.115c3.921,0,7.114-3.193,7.114-7.115
			C187.899,59.439,184.705,56.247,180.785,56.247z M162.46,58.298h0.008c1.516,0,2.872,0.634,3.849,1.638
			c-1.322,0.964-2.476,1.686-3.313,2.169c-0.185-0.127-0.387-0.232-0.614-0.29L162.46,58.298z M161.328,58.425l-0.072,3.44
			c-0.581,0.209-1.037,0.677-1.219,1.274h-2.925C157.367,60.809,159.075,58.912,161.328,58.425z M157.112,64.273h2.925
			c0.098,0.321,0.267,0.608,0.499,0.833l-1.306,2.911C158.066,67.138,157.277,65.803,157.112,64.273z M162.468,69.116
			c-0.81,0-1.565-0.19-2.259-0.51l1.335-2.975c0.12,0.023,0.236,0.035,0.362,0.035c0.078,0,0.15-0.011,0.229-0.02l1.663,3.284
			C163.368,69.042,162.929,69.116,162.468,69.116z M164.866,68.53l-1.692-3.34c0.245-0.208,0.438-0.47,0.554-0.777l4.047,0.289
			C167.462,66.386,166.358,67.785,164.866,68.53z M167.863,63.568l-4.044-0.287c-0.023-0.092-0.067-0.176-0.102-0.265
			c0.864-0.499,2.015-1.223,3.311-2.167C167.522,61.644,167.836,62.57,167.863,63.568z M180.226,57.436l0.058,4.092
			c-0.316,0.12-0.581,0.327-0.794,0.581c-0.959-0.45-2.281-1.094-3.785-1.89C176.673,58.682,178.318,57.616,180.226,57.436z
			 M175.704,66.478c-0.562-0.909-0.902-1.97-0.902-3.117c0-0.748,0.145-1.458,0.397-2.113c1.531,0.808,2.866,1.454,3.84,1.91
			c-0.01,0.068-0.033,0.131-0.033,0.202c0,0.209,0.043,0.41,0.107,0.599L175.704,66.478z M176.384,67.383l3.377-2.493
			c0.169,0.14,0.365,0.247,0.579,0.32l0.058,4.095C178.812,69.198,177.399,68.488,176.384,67.383z M181.355,57.436
			c1.536,0.15,2.892,0.866,3.869,1.951l-3.145,2.36c-0.196-0.136-0.422-0.234-0.661-0.292L181.355,57.436z M181.531,69.267
			l-0.058-4.022c0.317-0.083,0.602-0.243,0.837-0.461l3.456,1.881C184.824,68.078,183.292,69.046,181.531,69.267z M182.876,63.801
			c0.033-0.142,0.055-0.289,0.055-0.442c0-0.257-0.051-0.501-0.143-0.727l3.105-2.331c0.543,0.897,0.874,1.938,0.874,3.06
			c0,0.817-0.165,1.592-0.465,2.302L182.876,63.801z"/>
		<g>
			<g>
				<path style="fill:#633D78;" d="M27.683,70.102c0.442,0.008,0.862,0.02,1.258,0.038c0.806,0.031,1.479,0.07,2.033,0.102
					c1.511,0.103,2.818,0.153,3.917,0.153c3.092,0,5.931-0.69,8.527-2.082c2.592-1.394,4.653-3.367,6.187-5.928
					c1.525-2.558,2.287-5.503,2.287-8.838c0-2.953-0.739-5.617-2.215-7.988c-1.478-2.371-3.565-4.242-6.259-5.618
					c-2.696-1.371-5.782-2.059-9.248-2.059c-0.621,0-1.824,0.034-3.609,0.103c-1.479,0.102-2.92,0.15-4.334,0.15
					c-0.922,0-2.178-0.031-3.757-0.102l-2.733-0.049c-0.103,0-0.152,0.102-0.152,0.31c0,0.202,0.05,0.309,0.152,0.309
					c1.066,0,1.847,0.093,2.344,0.283c0.499,0.189,0.842,0.523,1.031,1.004c0.187,0.483,0.287,1.236,0.287,2.265v23.861
					c0,1.029-0.1,1.79-0.287,2.295c-0.189,0.495-0.541,0.832-1.053,1.002c-0.514,0.17-1.324,0.26-2.425,0.26
					c-0.064,0-0.104,0.099-0.104,0.31c0,0.202,0.04,0.307,0.104,0.307c1.169,0,2.1-0.02,2.785-0.051l2.639-0.036L27.683,70.102z
					 M44.14,62.562c-0.94,2.197-2.255,3.858-3.939,4.972c-1.689,1.117-3.631,1.676-5.824,1.676c-2.063,0-3.455-0.282-4.177-0.85
					c-0.203-0.162-0.368-0.363-0.517-0.584c-0.262-0.407-0.432-0.922-0.507-1.536c-0.032-0.25-0.06-0.507-0.06-0.79V42.265
					c0-1.343,0.4-2.218,1.193-2.632c0.785-0.414,2.244-0.619,4.377-0.619c2.162,0,4.07,0.688,5.721,2.063
					c1.648,1.37,2.917,3.253,3.814,5.64c0.891,2.389,1.338,5.047,1.338,7.964C45.558,57.74,45.084,60.364,44.14,62.562z"/>
			</g>
			<path style="fill:#633D78;" d="M108.995,44.491c0.989,0,1.749-0.283,2.278-0.844c0.53-0.567,0.795-1.358,0.795-2.389
				c0-0.951-0.265-1.694-0.795-2.225c-0.529-0.532-1.289-0.795-2.278-0.795c-0.991,0-1.773,0.274-2.358,0.821
				c-0.581,0.552-0.875,1.28-0.875,2.2c0,1.031,0.282,1.823,0.852,2.389C107.176,44.208,107.967,44.491,108.995,44.491z"/>
			<g>
				<path style="fill:#633D78;" d="M74.728,66.961h-0.057c-0.526,0.245-1.038,0.372-1.533,0.372c-0.672,0-1.192-0.282-1.562-0.846
					c-0.372-0.567-0.559-1.364-0.559-2.388v-9.38c0-1.982-0.483-3.454-1.459-4.427c-0.969-0.973-2.233-1.454-3.785-1.454
					c-1.344,0-2.893,0.3-4.642,0.897c-1.746,0.602-3.24,1.391-4.478,2.36c-1.235,0.973-1.857,1.984-1.857,3.046
					c0,0.601,0.209,1.087,0.612,1.459c0.407,0.37,1.049,0.552,1.936,0.552c0.92,0,1.632-0.23,2.148-0.684
					c0.512-0.461,0.817-1.224,0.928-2.278c0.241-2.899,1.308-4.352,3.179-4.352c0.884,0,1.512,0.515,1.879,1.539
					c0.374,1.026,0.557,2.669,0.557,4.931v3.02l-4.771,1.752l-1.324,0.475c-1.238,0.422-2.2,0.802-2.885,1.135
					c-0.689,0.339-1.265,0.8-1.724,1.379c-0.464,0.587-0.692,1.349-0.692,2.308c0,1.203,0.393,2.138,1.167,2.81
					c0.775,0.668,1.927,1.007,3.443,1.007c0.886,0,1.681-0.135,2.39-0.4c0.705-0.267,1.462-0.699,2.278-1.298l2.276-1.588
					c0.211,1.024,0.578,1.836,1.088,2.434c0.514,0.607,1.051,0.902,1.617,0.902c0.209,0,0.389-0.034,0.534-0.105l5.455-2.595
					c0.14-0.073,0.185-0.185,0.133-0.347C74.968,67.041,74.868,66.961,74.728,66.961z M64.92,66.801
					c-0.595,0.39-1.184,0.583-1.744,0.583c-0.704,0-1.334-0.236-1.881-0.715c-0.548-0.475-0.827-1.139-0.827-1.986
					c0-0.708,0.222-1.329,0.664-1.856c0.443-0.532,0.966-0.909,1.565-1.139c0.604-0.231,0.954-0.362,1.062-0.4l2.276-1.057v5.087
					c0,0.319,0.02,0.548,0.054,0.692L64.92,66.801z"/>
				<path style="fill:#633D78;" d="M101.411,69.596c-1.093,0-1.846-0.256-2.251-0.772c-0.409-0.508-0.605-1.474-0.605-2.886V55.759
					c0-1.976-0.561-3.576-1.678-4.793c-1.107-1.22-2.619-1.83-4.527-1.83c-2.934,0-5.621,1.449-8.059,4.346
					c-0.073-1.307-0.285-2.342-0.635-3.102c-0.354-0.759-0.721-1.135-1.113-1.135c-0.04,0-0.158,0.033-0.37,0.102l-7.367,3.605
					c-0.07,0.036-0.08,0.14-0.03,0.318c0.061,0.174,0.132,0.269,0.241,0.269h0.107c1.095-0.5,1.939-0.747,2.544-0.747
					c0.564,0,0.98,0.26,1.245,0.772c0.264,0.508,0.399,1.314,0.399,2.407v9.967c0,1.412-0.196,2.378-0.583,2.886
					c-0.388,0.515-1.134,0.772-2.227,0.772c-0.108,0-0.158,0.103-0.158,0.319c0,0.207,0.05,0.316,0.158,0.316
					c0.916,0,1.643-0.02,2.175-0.053l3.124-0.057l3.181,0.057c0.532,0.033,1.256,0.053,2.171,0.053c0.109,0,0.162-0.109,0.162-0.316
					c0-0.216-0.053-0.319-0.162-0.319c-1.093,0-1.846-0.256-2.251-0.772c-0.407-0.508-0.61-1.474-0.61-2.886v-11.29
					c0.674-0.597,1.456-1.077,2.36-1.434c0.899-0.35,1.777-0.527,2.623-0.527c1.484,0,2.573,0.457,3.263,1.376
					c0.688,0.919,1.031,2.329,1.031,4.239v7.636c0,1.412-0.194,2.378-0.583,2.886c-0.392,0.515-1.134,0.772-2.227,0.772
					c-0.103,0-0.162,0.103-0.162,0.319c0,0.207,0.058,0.316,0.162,0.316c0.92,0,1.659-0.02,2.227-0.053l3.076-0.057l3.18,0.057
					c0.53,0.033,1.251,0.053,2.169,0.053c0.107,0,0.167-0.109,0.167-0.316C101.577,69.699,101.517,69.596,101.411,69.596z"/>
			</g>
			<path id="XMLID_1_" style="fill:#633D78;" d="M114.741,69.617c-1.097,0-1.843-0.256-2.253-0.774
				c-0.401-0.512-0.608-1.474-0.608-2.886v-9.594c0-2.048,0.033-3.782,0.109-5.196v-1.167c0-0.133-0.089-0.298-0.269-0.472
				c-0.176-0.178-0.352-0.269-0.532-0.269l-0.156,0.056l-8.002,3.707c-0.107,0.037-0.123,0.154-0.057,0.346
				c0.075,0.196,0.178,0.293,0.318,0.293h0.054c0.85-0.39,1.502-0.583,1.964-0.583c0.567,0,0.968,0.262,1.22,0.795
				c0.245,0.53,0.372,1.396,0.372,2.596v9.487c0,1.412-0.205,2.374-0.587,2.886c-0.388,0.517-1.131,0.774-2.227,0.774
				c-0.1,0-0.16,0.102-0.16,0.314c0,0.212,0.06,0.318,0.16,0.318c0.918,0,1.643-0.016,2.171-0.051l3.127-0.055l3.183,0.055
				c0.526,0.035,1.254,0.051,2.171,0.051c0.109,0,0.159-0.106,0.159-0.318C114.9,69.719,114.85,69.617,114.741,69.617z"/>
			<path style="fill:#633D78;" d="M135.432,66.324l-0.107,0.055c-1.093,0.564-1.979,0.954-2.653,1.167
				c-0.668,0.21-1.483,0.314-2.438,0.314c-2.685,0-4.741-0.879-6.172-2.648c-1.431-1.769-2.144-4.207-2.144-7.317
				c0-0.559,0.013-0.973,0.047-1.218l12.89-0.051c0.381,0,0.577-0.548,0.577-1.643c0-2.086-0.603-3.622-1.803-4.609
				c-1.207-0.989-2.898-1.485-5.091-1.485c-2.295,0-4.354,0.507-6.172,1.51c-1.821,1.008-3.244,2.376-4.268,4.108
				c-1.024,1.726-1.534,3.622-1.534,5.669c0,1.837,0.421,3.542,1.269,5.114c0.853,1.573,2.086,2.828,3.709,3.763
				c1.63,0.937,3.552,1.404,5.778,1.404c1.59,0,3.059-0.282,4.402-0.847c1.341-0.564,2.668-1.484,3.975-2.757
				c0.067-0.07,0.058-0.173-0.028-0.316C135.584,66.395,135.501,66.324,135.432,66.324z M123.611,51.458
				c0.777-1.007,1.75-1.512,2.92-1.512c1.129,0,1.941,0.479,2.434,1.432c0.49,0.955,0.757,2.331,0.794,4.134l-7.682,0.105
				C122.318,53.851,122.834,52.465,123.611,51.458z"/>
			<path style="fill:#633D78;" d="M148.279,69.514c-1.092,0-1.837-0.255-2.223-0.772c-0.385-0.507-0.585-1.474-0.585-2.886v-31.22
				c0-0.14-0.107-0.294-0.317-0.452c-0.213-0.16-0.407-0.24-0.583-0.24l-0.21,0.054l-7.792,3.654
				c-0.076,0.038-0.062,0.153,0.022,0.345c0.095,0.196,0.187,0.292,0.291,0.292h0.059c0.883-0.39,1.551-0.581,2.012-0.581
				c0.562,0,0.964,0.263,1.193,0.793c0.23,0.53,0.345,1.416,0.345,2.656l-0.051,24.698c0,1.412-0.207,2.38-0.615,2.886
				c-0.407,0.517-1.152,0.772-2.247,0.772c-0.071,0-0.108,0.103-0.108,0.321c0,0.207,0.036,0.316,0.108,0.316
				c0.914,0,1.638-0.018,2.171-0.055l3.18-0.055l3.231,0.055c0.535,0.036,1.242,0.055,2.121,0.055c0.142,0,0.216-0.11,0.216-0.316
				C148.495,69.617,148.421,69.514,148.279,69.514z"/>
		</g>
		<path style="fill:#663C7F;" d="M150.14,25.609c-0.635-0.238-1.222-1.207-1.657-2.315c0.336-2.79,0.358-4.346-0.407-5.052
			c-0.32-0.298-0.746-0.414-1.176-0.327c-0.383,0.078-1.052,0.39-1.152,1.639c-0.072,0.871,0.163,2.429,0.685,3.947l-0.023,0.227
			c-0.096,0.702-1.704,4.085-3.302,4.887c-0.469,0.233-0.745,0.145-0.957,0.031c-1.269-0.703-0.031-4.326,0.994-6.329
			c0.084-0.148,0.148-0.267,0.178-0.349c0.205-0.491-0.011-1.059-0.494-1.29c-0.483-0.23-1.06-0.044-1.314,0.427
			c-0.047,0.089-0.138,0.253-0.255,0.486c-1.198,2.037-6.502,8.93-8.675,9.177c-0.129,0.016-0.138,0.002-0.182-0.06
			c-1.119-1.568,2.24-7.33,4.863-10.733c0.342-0.439,0.258-1.071-0.179-1.408c-0.442-0.338-1.073-0.254-1.409,0.179
			c-0.877,1.137-4.162,5.567-5.158,9.246c-2.396,2.173-6.257,3.676-7.632,2.523c-0.599-0.503-0.931-1.254-0.993-2.236
			c-0.02-0.39,0-0.81,0.063-1.245c0.073-0.005,0.143-0.018,0.215-0.042c0.174-0.056,4.269-1.355,6.332-5.299
			c0.871-1.668,0.864-2.831-0.018-3.455c-1.504-1.068-4.217,0.847-5.57,2.306c-1.144,1.227-2.296,3.234-2.785,5.373
			c-1.911,1.943-5.271,4.874-6.657,4.874h-0.011c-0.774-0.007-1-0.392-1.071-0.519c-0.365-0.623-0.349-1.608,0.828-3.716
			c1.173-2.113,1.425-3.354,0.839-4.145c-0.396-0.539-1.019-0.632-1.452-0.542c-1.438,0.319-3.905,2.699-6.06,5.049
			c0.189-0.454,0.387-0.924,0.592-1.413c2.897-2.621,7.038-6.415,8.915-8.373c0.859-0.889,8.348-8.781,8.525-12.246
			c0.071-1.394-0.402-3.233-1.966-3.823c-1.911-0.722-4.286,0.744-7.269,4.49c-3.422,4.281-7.289,12.625-9.897,18.773
			c-1.583,1.435-2.72,2.448-2.75,2.479l0,0c-0.002,0.002-0.003,0.002-0.01,0.003c-3.2,2.903-7.014,4.604-8.501,3.801
			c-0.911-0.494-0.787-2.225-0.626-3.211c0.314-1.945,1.563-4.935,2.478-6.857c0.662,0.036,1.341,0.053,2.018,0.053
			c1.153,0,2.282-0.06,3.255-0.221c0.552-0.091,0.917-0.608,0.828-1.156c-0.09-0.548-0.61-0.922-1.152-0.824
			c-1.141,0.187-2.548,0.221-3.952,0.176c2.236-4.064,4.844-7.226,4.886-7.277c0.355-0.425,0.298-1.06-0.129-1.414
			c-0.425-0.354-1.057-0.298-1.416,0.131c-0.188,0.225-3.176,3.85-5.55,8.438c-2.228-0.177-4.027-0.455-4.058-0.46
			c-0.394-0.056-0.756,0.119-0.973,0.423c-1.113,0.17-2.462,0.203-3.81,0.16c2.231-4.064,4.839-7.226,4.883-7.277
			c0.353-0.428,0.296-1.06-0.129-1.414c-0.425-0.354-1.056-0.298-1.412,0.131c-0.19,0.225-3.177,3.85-5.553,8.438
			c-2.228-0.177-4.025-0.455-4.061-0.46c-0.543-0.08-1.06,0.289-1.144,0.838c-0.083,0.547,0.289,1.063,0.839,1.146
			c0.122,0.022,1.541,0.238,3.425,0.412c-0.835,1.866-2.004,4.785-2.311,6.699c-0.01,0.096-0.01,0.172-0.027,0.263
			c-0.897,1.298-3.484,3.825-5.535,3.409c-0.322-0.064-0.55-0.223-0.747-0.525c-0.807-1.252-0.501-3.792-0.13-5.396
			c0.009-0.034-0.002-0.066,0.003-0.101c0.532-0.88,1.347-2.775,1.931-3.849c0.305,0.133,0.667,0.111,0.96-0.085
			c0.46-0.305,0.59-0.928,0.285-1.391c-0.584-0.875-1.906-1.233-2.158-1.292c-0.167-0.046-4.15-0.969-7.082,2.867
			c-0.701,0.918-3.549,5.039-4.148,7.998c-2.803,3.315-4.799,3.028-5.357,2.91c-0.502-0.105-0.866-0.387-0.977-0.752
			c-0.844-2.91,1.654-7.959,3.707-12.489c2.306-5.085,2.636-6.643,0.992-8.122c-2.393-2.142-6.103,0.349-12.74,7.439
			c-0.327,0.349-0.59,0.63-0.779,0.822c-0.695,0.722-2.122,2.39-3.647,4.208c0.163-0.387,0.319-0.784,0.477-1.189
			c1.392-3.56,3.177-8.758,1.674-12.015c-0.434-0.942-1.089-1.336-1.564-1.501c-2.866-0.995-6.726,1.093-10.561,5.616l-0.401,0.468
			c-0.37,0.429-1.207,1.501-2.275,2.893c2.268-4.953,3.549-8.998,2.485-12.234c-0.528-1.621-1.586-2.799-3.135-3.504
			c-3.534-1.599-9.73-0.601-17.933,2.894C10.843,5.703,0.062,11.597,2.193,17.071c1.973,5.085,12.657,3.037,13.874,2.717
			c0.541-0.138,0.859-0.689,0.722-1.223c-0.142-0.538-0.699-0.856-1.223-0.72c-2.645,0.689-10.375,1.405-11.506-1.503
			c-1.218-3.137,6.234-8.227,10.571-10.07c7.563-3.222,13.356-4.255,16.315-2.913c1.034,0.47,1.71,1.22,2.06,2.304
			c1.829,5.571-7.025,20.467-10.499,25.568c-0.305,0.45-0.2,1.066,0.249,1.383c0.447,0.316,1.058,0.22,1.387-0.218
			c0.099-0.134,10.596-14.986,12.079-16.712l0.414-0.477c6.194-7.305,7.785-5.223,8.373-5.02c0.055,0.022,0.23,0.081,0.398,0.443
			c0.953,2.068,0.065,5.882-1.716,10.449c-1.899,4.862-5.111,10.143-5.134,10.18c-0.269,0.454-0.145,1.035,0.287,1.338
			c0.434,0.305,1.024,0.218,1.358-0.187c0.069-0.089,8.187-10.383,9.967-12.223c0.195-0.197,0.465-0.49,0.801-0.848
			c9.433-10.078,9.787-7.446,9.912-7.337c0.454,0.788-0.223,3.097-1.458,5.823c-2.302,5.083-4.854,10.256-3.8,13.881
			c0.315,1.089,1.247,1.897,2.493,2.153c0.212,0.045,0.502,0.085,0.848,0.085c1.158,0,2.979-0.256,5.158-2.298
			c0.091,0.158,0.187,0.312,0.313,0.446c0.427,0.463,0.98,0.708,1.586,0.708c0.096,0,0.195-0.005,0.29-0.018
			c0.438-0.055,2.249-0.16,5.399-4.448c0.025,1.236,0.21,2.041,0.819,2.983c0.485,0.753,1.193,1.238,2.046,1.407
			c0.265,0.053,0.532,0.076,0.789,0.076c2.068,0,3.977-1.056,5.263-2.432c0.343,1.144,1.006,1.784,1.649,2.133
			c0.577,0.312,1.251,0.456,1.982,0.456c2.208,0,4.949-1.287,7.309-3.048c0.273,1.374,0.982,2.095,1.667,2.465
			c0.544,0.294,1.169,0.426,1.851,0.426c2.605,0,6.007-1.944,8.608-4.213c-0.733,1.841-0.882,2.665-0.953,2.854
			c-0.175,0.463,0.016,0.982,0.444,1.227c0.436,0.247,0.973,0.139,1.282-0.247c2.743-3.434,5.775-6.686,7.603-8.048
			c-0.134,0.307-0.374,0.678-0.601,1.205c-1.097,2.535-1.674,4.218-0.81,5.703c0.56,0.966,1.55,1.507,2.785,1.519
			c0.011,0,0.018,0,0.031,0c1.897,0,4.711-2.356,6.487-3.948c0.174,1.325,0.721,2.432,1.638,3.204
			c0.627,0.53,1.374,0.744,2.175,0.744c2.32,0,4.786-0.653,6.552-2.028c0.083,0.403,0.216,0.781,0.448,1.106
			c0.42,0.588,1.033,0.9,1.75,0.9c0.092,0,0.187-0.003,0.289-0.014c1.941-0.22,4.627-2.885,6.802-5.526
			c-0.017,1.316,0.375,2.504,1.561,3.162c0.899,0.501,1.896,0.495,2.873-0.011c1.521-0.782,2.844-2.774,3.623-4.391
			c0.496,0.692,1.082,1.235,1.763,1.491c0.516,0.196,1.097-0.066,1.293-0.584C150.92,26.385,150.659,25.805,150.14,25.609z
			 M124.391,21.913c0.974-1.053,2.053-1.683,2.667-1.895c-0.06,0.179-0.16,0.423-0.332,0.743c-1.071,2.057-2.886,3.249-4.049,3.841
			C123.109,23.6,123.703,22.647,124.391,21.913z M116.915,6.803c2.781-3.487,4.237-3.899,4.763-3.899
			c0.126,0,0.196,0.027,0.225,0.035c0.422,0.161,0.715,0.971,0.675,1.846c-0.089,1.764-4.122,6.955-7.968,10.954
			c-1.186,1.236-3.345,3.269-5.5,5.253C111.478,15.737,114.363,9.999,116.915,6.803z M66.062,30.792
			c-0.082,0.007-0.094,0.002-0.149-0.058c-0.679-0.735,0.817-4.74,3.709-8.529c1.454-1.902,2.993-2.285,4.219-2.212
			c0.14,0.008,0.267,0.003,0.372,0.014C71.539,24.881,67.619,30.594,66.062,30.792z M91.58,27.082
			c-0.015,0.096-0.015,0.176-0.031,0.269c-3.032,2.663-6.799,4.206-8.318,3.386c-0.953-0.515-0.918-2.1-0.722-3.338
			c0.31-1.945,1.563-4.935,2.48-6.857c0.662,0.036,1.347,0.053,2.017,0.053c1.154,0,2.283-0.06,3.258-0.221
			c0.242-0.041,0.439-0.172,0.586-0.344c0.563,0.08,1.674,0.231,3.038,0.354C93.056,22.249,91.889,25.167,91.58,27.082z"/>
		<g>
			<g>
				<linearGradient id="SVGID_1_" gradientUnits="userSpaceOnUse" x1="35.7127" y1="70.3944" x2="35.7127" y2="37.8819">
					<stop  offset="0" style="stop-color:#3A3779"/>
					<stop  offset="0.0461" style="stop-color:#4C4685"/>
					<stop  offset="0.1374" style="stop-color:#6A6399"/>
					<stop  offset="0.2341" style="stop-color:#8781AD"/>
					<stop  offset="0.3346" style="stop-color:#A4A0C0"/>
					<stop  offset="0.4399" style="stop-color:#C0BDD3"/>
					<stop  offset="0.5517" style="stop-color:#D8D7E3"/>
					<stop  offset="0.6729" style="stop-color:#EEEDF2"/>
					<stop  offset="0.8105" style="stop-color:#FBFBFC"/>
					<stop  offset="1" style="stop-color:#FFFFFF"/>
				</linearGradient>
				<path style="fill:url(#SVGID_1_);" d="M27.683,70.102c0.442,0.008,0.862,0.02,1.258,0.038c0.806,0.031,1.479,0.07,2.033,0.102
					c1.511,0.103,2.818,0.153,3.917,0.153c3.092,0,5.931-0.69,8.527-2.082c2.592-1.394,4.653-3.367,6.187-5.928
					c1.525-2.558,2.287-5.503,2.287-8.838c0-2.953-0.739-5.617-2.215-7.988c-1.478-2.371-3.565-4.242-6.259-5.618
					c-2.696-1.371-5.782-2.058-9.248-2.058c-0.621,0-1.824,0.034-3.609,0.103c-1.479,0.103-2.92,0.151-4.334,0.151
					c-0.922,0-2.178-0.031-3.757-0.103l-2.733-0.049c-0.103,0-0.152,0.103-0.152,0.311c0,0.202,0.05,0.308,0.152,0.308
					c1.066,0,1.847,0.093,2.344,0.283c0.499,0.189,0.842,0.523,1.031,1.005c0.187,0.482,0.287,1.236,0.287,2.265v23.861
					c0,1.029-0.1,1.79-0.287,2.295c-0.189,0.495-0.541,0.832-1.053,1.002c-0.514,0.17-1.324,0.26-2.425,0.26
					c-0.064,0-0.104,0.099-0.104,0.31c0,0.202,0.04,0.307,0.104,0.307c1.169,0,2.1-0.02,2.785-0.051l2.639-0.036L27.683,70.102z
					 M44.14,62.562c-0.94,2.197-2.255,3.858-3.939,4.972c-1.689,1.117-3.631,1.676-5.824,1.676c-2.063,0-3.455-0.282-4.177-0.85
					c-0.203-0.162-0.368-0.363-0.517-0.584c-0.262-0.407-0.432-0.922-0.507-1.536c-0.032-0.25-0.06-0.507-0.06-0.79V42.266
					c0-1.344,0.4-2.219,1.193-2.633c0.785-0.415,2.244-0.62,4.377-0.62c2.162,0,4.07,0.688,5.721,2.063
					c1.648,1.37,2.917,3.252,3.814,5.639c0.891,2.39,1.338,5.047,1.338,7.964C45.558,57.74,45.084,60.364,44.14,62.562z"/>
			</g>
			<g>
				<linearGradient id="SVGID_2_" gradientUnits="userSpaceOnUse" x1="64.8409" y1="70.2467" x2="64.8409" y2="48.8385">
					<stop  offset="0" style="stop-color:#3A3779"/>
					<stop  offset="0.0461" style="stop-color:#4C4685"/>
					<stop  offset="0.1374" style="stop-color:#6A6399"/>
					<stop  offset="0.2341" style="stop-color:#8781AD"/>
					<stop  offset="0.3346" style="stop-color:#A4A0C0"/>
					<stop  offset="0.4399" style="stop-color:#C0BDD3"/>
					<stop  offset="0.5517" style="stop-color:#D8D7E3"/>
					<stop  offset="0.6729" style="stop-color:#EEEDF2"/>
					<stop  offset="0.8105" style="stop-color:#FBFBFC"/>
					<stop  offset="1" style="stop-color:#FFFFFF"/>
				</linearGradient>
				<path style="fill:url(#SVGID_2_);" d="M74.728,66.961h-0.057c-0.526,0.245-1.038,0.372-1.533,0.372
					c-0.672,0-1.192-0.282-1.562-0.846c-0.372-0.567-0.559-1.364-0.559-2.388v-9.38c0-1.982-0.483-3.454-1.459-4.427
					c-0.969-0.973-2.233-1.454-3.785-1.454c-1.344,0-2.893,0.3-4.642,0.897c-1.746,0.602-3.24,1.391-4.478,2.36
					c-1.235,0.973-1.857,1.984-1.857,3.046c0,0.601,0.209,1.087,0.612,1.459c0.407,0.37,1.049,0.552,1.936,0.552
					c0.92,0,1.632-0.23,2.148-0.684c0.512-0.461,0.817-1.224,0.928-2.278c0.241-2.899,1.308-4.352,3.179-4.352
					c0.884,0,1.512,0.515,1.879,1.539c0.374,1.026,0.557,2.669,0.557,4.931v3.02l-4.771,1.752l-1.324,0.475
					c-1.238,0.422-2.2,0.802-2.885,1.135c-0.689,0.339-1.265,0.8-1.724,1.379c-0.464,0.587-0.692,1.349-0.692,2.308
					c0,1.203,0.393,2.138,1.167,2.81c0.775,0.668,1.927,1.007,3.443,1.007c0.886,0,1.681-0.135,2.39-0.4
					c0.705-0.267,1.462-0.699,2.278-1.298l2.276-1.588c0.211,1.024,0.578,1.836,1.088,2.434c0.514,0.607,1.051,0.902,1.617,0.902
					c0.209,0,0.389-0.034,0.534-0.105l5.455-2.595c0.14-0.073,0.185-0.185,0.133-0.347C74.968,67.041,74.868,66.961,74.728,66.961z
					 M64.92,66.801c-0.595,0.39-1.184,0.583-1.744,0.583c-0.704,0-1.334-0.236-1.881-0.715c-0.548-0.475-0.827-1.139-0.827-1.986
					c0-0.708,0.222-1.329,0.664-1.856c0.443-0.532,0.966-0.909,1.565-1.139c0.604-0.231,0.954-0.362,1.062-0.4l2.276-1.057v5.087
					c0,0.319,0.02,0.548,0.054,0.692L64.92,66.801z"/>
				<linearGradient id="SVGID_3_" gradientUnits="userSpaceOnUse" x1="88.1613" y1="70.231" x2="88.1613" y2="49.1366">
					<stop  offset="0" style="stop-color:#3A3779"/>
					<stop  offset="0.0461" style="stop-color:#4C4685"/>
					<stop  offset="0.1374" style="stop-color:#6A6399"/>
					<stop  offset="0.2341" style="stop-color:#8781AD"/>
					<stop  offset="0.3346" style="stop-color:#A4A0C0"/>
					<stop  offset="0.4399" style="stop-color:#C0BDD3"/>
					<stop  offset="0.5517" style="stop-color:#D8D7E3"/>
					<stop  offset="0.6729" style="stop-color:#EEEDF2"/>
					<stop  offset="0.8105" style="stop-color:#FBFBFC"/>
					<stop  offset="1" style="stop-color:#FFFFFF"/>
				</linearGradient>
				<path style="fill:url(#SVGID_3_);" d="M101.411,69.596c-1.093,0-1.846-0.256-2.251-0.772c-0.409-0.508-0.605-1.474-0.605-2.886
					V55.759c0-1.976-0.561-3.576-1.678-4.793c-1.107-1.22-2.619-1.83-4.527-1.83c-2.934,0-5.621,1.449-8.059,4.346
					c-0.073-1.307-0.285-2.342-0.635-3.102c-0.354-0.76-0.721-1.135-1.113-1.135c-0.04,0-0.158,0.033-0.37,0.102l-7.367,3.605
					c-0.07,0.036-0.08,0.14-0.03,0.318c0.061,0.174,0.132,0.269,0.241,0.269h0.107c1.095-0.5,1.939-0.747,2.544-0.747
					c0.564,0,0.98,0.26,1.245,0.772c0.264,0.508,0.399,1.314,0.399,2.407v9.967c0,1.412-0.196,2.378-0.583,2.886
					c-0.388,0.515-1.134,0.772-2.227,0.772c-0.108,0-0.158,0.103-0.158,0.319c0,0.207,0.05,0.316,0.158,0.316
					c0.916,0,1.643-0.02,2.175-0.053l3.124-0.057l3.181,0.057c0.532,0.033,1.256,0.053,2.171,0.053c0.109,0,0.162-0.109,0.162-0.316
					c0-0.216-0.053-0.319-0.162-0.319c-1.093,0-1.846-0.256-2.251-0.772c-0.407-0.508-0.61-1.474-0.61-2.886v-11.29
					c0.674-0.597,1.456-1.077,2.36-1.434c0.899-0.35,1.777-0.527,2.623-0.527c1.484,0,2.573,0.457,3.263,1.376
					c0.688,0.919,1.031,2.329,1.031,4.239v7.636c0,1.412-0.194,2.378-0.583,2.886c-0.392,0.515-1.134,0.772-2.227,0.772
					c-0.103,0-0.162,0.103-0.162,0.319c0,0.207,0.058,0.316,0.162,0.316c0.92,0,1.659-0.02,2.227-0.053l3.076-0.057l3.18,0.057
					c0.53,0.033,1.251,0.053,2.169,0.053c0.107,0,0.167-0.109,0.167-0.316C101.577,69.699,101.517,69.596,101.411,69.596z"/>
			</g>
			<linearGradient id="XMLID_4_" gradientUnits="userSpaceOnUse" x1="108.9167" y1="70.2493" x2="108.9167" y2="49.26">
				<stop  offset="0" style="stop-color:#3A3779"/>
				<stop  offset="0.0461" style="stop-color:#4C4685"/>
				<stop  offset="0.1374" style="stop-color:#6A6399"/>
				<stop  offset="0.2341" style="stop-color:#8781AD"/>
				<stop  offset="0.3346" style="stop-color:#A4A0C0"/>
				<stop  offset="0.4399" style="stop-color:#C0BDD3"/>
				<stop  offset="0.5517" style="stop-color:#D8D7E3"/>
				<stop  offset="0.6729" style="stop-color:#EEEDF2"/>
				<stop  offset="0.8105" style="stop-color:#FBFBFC"/>
				<stop  offset="1" style="stop-color:#FFFFFF"/>
			</linearGradient>
			<path id="XMLID_2_" style="fill:url(#XMLID_4_);" d="M114.741,69.617c-1.097,0-1.843-0.256-2.253-0.774
				c-0.401-0.512-0.608-1.474-0.608-2.886v-9.594c0-2.048,0.033-3.782,0.109-5.196v-1.167c0-0.133-0.089-0.298-0.269-0.472
				c-0.176-0.178-0.352-0.269-0.532-0.269l-0.156,0.057l-8.002,3.707c-0.107,0.037-0.123,0.154-0.057,0.346
				c0.075,0.196,0.178,0.293,0.318,0.293h0.054c0.85-0.39,1.502-0.583,1.964-0.583c0.567,0,0.968,0.262,1.22,0.795
				c0.245,0.53,0.372,1.396,0.372,2.596v9.487c0,1.412-0.205,2.374-0.587,2.886c-0.388,0.517-1.131,0.774-2.227,0.774
				c-0.1,0-0.16,0.102-0.16,0.314c0,0.212,0.06,0.318,0.16,0.318c0.918,0,1.643-0.016,2.171-0.051l3.127-0.055l3.183,0.055
				c0.526,0.035,1.254,0.051,2.171,0.051c0.109,0,0.159-0.106,0.159-0.318C114.9,69.719,114.85,69.617,114.741,69.617z"/>
			<linearGradient id="SVGID_4_" gradientUnits="userSpaceOnUse" x1="126.1541" y1="70.4579" x2="126.1541" y2="48.8889">
				<stop  offset="0" style="stop-color:#3A3779"/>
				<stop  offset="0.0461" style="stop-color:#4C4685"/>
				<stop  offset="0.1374" style="stop-color:#6A6399"/>
				<stop  offset="0.2341" style="stop-color:#8781AD"/>
				<stop  offset="0.3346" style="stop-color:#A4A0C0"/>
				<stop  offset="0.4399" style="stop-color:#C0BDD3"/>
				<stop  offset="0.5517" style="stop-color:#D8D7E3"/>
				<stop  offset="0.6729" style="stop-color:#EEEDF2"/>
				<stop  offset="0.8105" style="stop-color:#FBFBFC"/>
				<stop  offset="1" style="stop-color:#FFFFFF"/>
			</linearGradient>
			<path style="fill:url(#SVGID_4_);" d="M135.432,66.324l-0.107,0.055c-1.093,0.564-1.979,0.954-2.653,1.167
				c-0.668,0.21-1.483,0.314-2.438,0.314c-2.685,0-4.741-0.879-6.172-2.648c-1.431-1.769-2.144-4.207-2.144-7.317
				c0-0.559,0.013-0.973,0.047-1.218l12.89-0.051c0.381,0,0.577-0.548,0.577-1.643c0-2.086-0.603-3.622-1.803-4.609
				c-1.207-0.989-2.898-1.485-5.091-1.485c-2.295,0-4.354,0.508-6.172,1.511c-1.821,1.008-3.244,2.376-4.268,4.108
				c-1.024,1.726-1.534,3.622-1.534,5.669c0,1.837,0.421,3.542,1.269,5.114c0.853,1.573,2.086,2.828,3.709,3.763
				c1.63,0.937,3.552,1.404,5.778,1.404c1.59,0,3.059-0.282,4.402-0.847c1.341-0.564,2.668-1.484,3.975-2.757
				c0.067-0.07,0.058-0.173-0.028-0.316C135.584,66.395,135.501,66.324,135.432,66.324z M123.611,51.458
				c0.777-1.007,1.75-1.512,2.92-1.512c1.129,0,1.941,0.48,2.434,1.432c0.49,0.955,0.757,2.331,0.794,4.134l-7.682,0.105
				C122.318,53.851,122.834,52.465,123.611,51.458z"/>
			<linearGradient id="SVGID_5_" gradientUnits="userSpaceOnUse" x1="142.5069" y1="70.1511" x2="142.5069" y2="33.9438">
				<stop  offset="0" style="stop-color:#3A3779"/>
				<stop  offset="0.0461" style="stop-color:#4C4685"/>
				<stop  offset="0.1374" style="stop-color:#6A6399"/>
				<stop  offset="0.2341" style="stop-color:#8781AD"/>
				<stop  offset="0.3346" style="stop-color:#A4A0C0"/>
				<stop  offset="0.4399" style="stop-color:#C0BDD3"/>
				<stop  offset="0.5517" style="stop-color:#D8D7E3"/>
				<stop  offset="0.6729" style="stop-color:#EEEDF2"/>
				<stop  offset="0.8105" style="stop-color:#FBFBFC"/>
				<stop  offset="1" style="stop-color:#FFFFFF"/>
			</linearGradient>
			<path style="fill:url(#SVGID_5_);" d="M148.279,69.514c-1.092,0-1.837-0.255-2.223-0.772c-0.385-0.507-0.585-1.474-0.585-2.886
				v-31.22c0-0.14-0.107-0.294-0.317-0.452c-0.213-0.16-0.407-0.24-0.583-0.24l-0.21,0.054l-7.792,3.654
				c-0.076,0.038-0.062,0.153,0.022,0.345c0.095,0.196,0.187,0.292,0.291,0.292h0.059c0.883-0.39,1.551-0.581,2.012-0.581
				c0.562,0,0.964,0.263,1.193,0.794c0.23,0.53,0.345,1.415,0.345,2.655l-0.051,24.698c0,1.412-0.207,2.38-0.615,2.886
				c-0.407,0.517-1.152,0.772-2.247,0.772c-0.071,0-0.108,0.103-0.108,0.321c0,0.207,0.036,0.316,0.108,0.316
				c0.914,0,1.638-0.018,2.171-0.055l3.18-0.055l3.231,0.055c0.535,0.036,1.242,0.055,2.121,0.055c0.142,0,0.216-0.11,0.216-0.316
				C148.495,69.617,148.421,69.514,148.279,69.514z"/>
		</g>
		<linearGradient id="SVGID_6_" gradientUnits="userSpaceOnUse" x1="171.9131" y1="70.4761" x2="171.9131" y2="48.8715">
			<stop  offset="0" style="stop-color:#3A3779"/>
			<stop  offset="0.0461" style="stop-color:#4C4685"/>
			<stop  offset="0.1374" style="stop-color:#6A6399"/>
			<stop  offset="0.2341" style="stop-color:#8781AD"/>
			<stop  offset="0.3346" style="stop-color:#A4A0C0"/>
			<stop  offset="0.4399" style="stop-color:#C0BDD3"/>
			<stop  offset="0.5517" style="stop-color:#D8D7E3"/>
			<stop  offset="0.6729" style="stop-color:#EEEDF2"/>
			<stop  offset="0.8105" style="stop-color:#FBFBFC"/>
			<stop  offset="1" style="stop-color:#FFFFFF"/>
		</linearGradient>
		<path style="fill:url(#SVGID_6_);" d="M180.785,56.247c-2.574,0-4.829,1.379-6.08,3.433c-1.173-0.643-2.421-1.36-3.679-2.146
			c2.285-2.088,4.426-4.348,6.546-7.667l-0.959-0.608c-2.115,3.315-4.293,5.566-6.595,7.634c-3.454-2.249-6.666-5.236-8.348-8.022
			l-0.97,0.584c1.747,2.898,4.954,5.933,8.419,8.222c-0.52,0.439-1.387,1.193-1.879,1.57c-1.195-1.279-2.89-2.083-4.771-2.083
			c-3.609,0-6.54,2.933-6.54,6.542c0,3.605,2.932,6.545,6.54,6.545c3.607,0,6.544-2.939,6.544-6.545
			c0-1.311-0.394-2.525-1.056-3.551c0.586-0.452,1.554-1.285,2.18-1.821c1.385,0.875,2.767,1.672,4.052,2.375
			c-0.33,0.819-0.517,1.716-0.517,2.652c0,3.922,3.192,7.115,7.114,7.115c3.921,0,7.114-3.193,7.114-7.115
			C187.899,59.439,184.705,56.247,180.785,56.247z M162.46,58.298h0.008c1.516,0,2.872,0.634,3.849,1.638
			c-1.322,0.964-2.476,1.686-3.313,2.169c-0.185-0.127-0.387-0.232-0.614-0.29L162.46,58.298z M161.328,58.425l-0.072,3.44
			c-0.581,0.209-1.037,0.677-1.219,1.274h-2.925C157.367,60.809,159.075,58.912,161.328,58.425z M157.112,64.273h2.925
			c0.098,0.321,0.267,0.608,0.499,0.833l-1.306,2.911C158.066,67.138,157.277,65.803,157.112,64.273z M162.468,69.116
			c-0.81,0-1.565-0.19-2.259-0.51l1.335-2.975c0.12,0.023,0.236,0.035,0.362,0.035c0.078,0,0.15-0.011,0.229-0.02l1.663,3.284
			C163.368,69.042,162.929,69.116,162.468,69.116z M164.866,68.53l-1.692-3.34c0.245-0.208,0.438-0.47,0.554-0.777l4.047,0.289
			C167.462,66.386,166.358,67.785,164.866,68.53z M167.863,63.568l-4.044-0.287c-0.023-0.092-0.067-0.176-0.102-0.265
			c0.864-0.499,2.015-1.223,3.311-2.167C167.522,61.644,167.836,62.57,167.863,63.568z M180.226,57.436l0.058,4.092
			c-0.316,0.12-0.581,0.327-0.794,0.581c-0.959-0.45-2.281-1.094-3.785-1.89C176.673,58.682,178.318,57.616,180.226,57.436z
			 M175.704,66.478c-0.562-0.909-0.902-1.97-0.902-3.117c0-0.748,0.145-1.458,0.397-2.113c1.531,0.808,2.866,1.454,3.84,1.91
			c-0.01,0.068-0.033,0.131-0.033,0.202c0,0.209,0.043,0.41,0.107,0.599L175.704,66.478z M176.384,67.383l3.377-2.493
			c0.169,0.14,0.365,0.247,0.579,0.32l0.058,4.095C178.812,69.198,177.399,68.488,176.384,67.383z M181.355,57.436
			c1.536,0.15,2.892,0.866,3.869,1.951l-3.145,2.36c-0.196-0.136-0.422-0.234-0.661-0.292L181.355,57.436z M181.531,69.267
			l-0.058-4.022c0.317-0.083,0.602-0.243,0.837-0.461l3.456,1.881C184.824,68.078,183.292,69.046,181.531,69.267z M182.876,63.801
			c0.033-0.142,0.055-0.289,0.055-0.442c0-0.257-0.051-0.501-0.143-0.727l3.105-2.331c0.543,0.897,0.874,1.938,0.874,3.06
			c0,0.817-0.165,1.592-0.465,2.302L182.876,63.801z"/>
		<path style="fill:#58452A;" d="M191.494,29.344c-0.343-0.902-0.854-1.643-1.541-2.219c-0.62-0.521-1.315-0.837-2.083-0.949
			c-0.766-0.116-1.529-0.016-2.288,0.299c-0.762,0.316-1.423,0.808-1.988,1.482c-0.552,0.661-1.014,1.458-1.363,2.382
			c-0.269,0.686-0.687,2.108-0.779,2.979c-0.817,7.628-1.347,8.24-2.043,9.669c-0.667,1.372-1.681,3.021-3.315,4.014
			c-2.383-1.741-4.366-3.763-5.938-6.067c-1.033-1.505-1.908-3.241-2.63-5.203c-0.717-1.962-1.111-3.707-1.179-5.23
			c0.474-0.236,1.462-0.77,2.97-1.597c1.387-0.779,2.335-1.336,2.843-1.674c3.065-1.967,4.594-3.971,4.594-6.016
			c0-0.916-0.335-1.682-1.006-2.299c-0.662-0.617-1.532-0.927-2.6-0.927c-1.978,0-3.799,1.007-5.458,3.02
			c-0.914,1.119-1.651,2.552-2.206,4.301c-0.559,1.756-0.84,3.544-0.84,5.372v0.049v0.102l-0.176,0.103
			c-5.445,3.093-8.172,6.7-8.172,10.809c0,1.815,0.435,3.404,1.309,4.776c0.869,1.371,2.113,2.427,3.73,3.171
			c1.613,0.744,3.465,1.116,5.543,1.116c2.641,0,5.136-0.608,7.489-1.826l0.2-0.102c0-0.02,0.029-0.033,0.08-0.051
			c2.05,1.235,4.155,1.852,6.321,1.852c1.944,0,3.734-0.467,5.172-1.663c0.535-0.447,0.012-1.033-0.567-0.672
			c-0.926,0.572-2.111,0.786-3.465,0.786c-1.759,0-3.502-0.539-5.229-1.623l-0.125-0.077c0.862-0.628,1.761-1.358,2.549-2.311
			c2.28-2.758,2.351-6.359,2.843-11.076c0.076-0.75,0.229-1.471,0.422-2.159c0.36-1.26,0.875-2.291,1.545-3.093
			c0.695-0.83,1.479-1.318,2.34-1.467c0.866-0.153,1.639,0.063,2.333,0.643c1.81,1.521,2.654,3.665,0.049,8.156
			c-1.206,1.992,1.013,2.353,2.268-0.648c0.354-0.848,0.724-2.111,0.794-3.179C191.967,31.226,191.833,30.242,191.494,29.344z
			 M166.324,28.697c0-1.708,0.278-3.31,0.839-4.81c0.557-1.496,1.305-2.687,2.244-3.58c0.94-0.886,1.953-1.331,3.035-1.331
			c0.742,0,1.338,0.204,1.786,0.609c0.45,0.408,0.672,0.974,0.672,1.702c0,0.846-0.278,1.736-0.835,2.676
			c-0.557,0.938-1.302,1.758-2.231,2.45c-1.236,0.967-3.065,2.089-5.484,3.377l-0.025-0.432V28.697z M168.48,49.489
			c-2.723,0-4.99-0.864-6.802-2.578c-1.81-1.719-2.715-3.87-2.715-6.457c0-3.471,1.895-6.416,5.683-8.835l0.03,0.127
			c0.252,3.471,1.201,6.681,2.84,9.631c1.639,2.955,3.757,5.277,6.347,6.969C172.153,49.106,170.359,49.489,168.48,49.489z"/>
		<g>
			<path style="fill:#58452A;" d="M28.885,91.321c0,0.05-0.013,0.078-0.04,0.078c-0.202,0-0.361-0.005-0.484-0.015l-0.71-0.014
				l-0.948,0.014c-0.139,0.01-0.326,0.015-0.561,0.015c-0.018,0-0.027-0.029-0.027-0.078c0-0.054,0.009-0.077,0.027-0.077
				c0.435,0,0.654-0.086,0.654-0.253c0-0.078-0.04-0.174-0.118-0.289l-1.616-2.196l-0.657,0.514v1.314
				c0,0.252,0.024,0.447,0.063,0.572c0.048,0.129,0.124,0.216,0.24,0.262c0.117,0.049,0.289,0.076,0.521,0.076
				c0.029,0,0.042,0.023,0.042,0.077c0,0.05-0.013,0.078-0.042,0.078c-0.196,0-0.362-0.005-0.483-0.015l-0.708-0.014l-0.711,0.014
				c-0.122,0.01-0.282,0.015-0.487,0.015c-0.023,0-0.035-0.029-0.035-0.078c0-0.054,0.011-0.077,0.035-0.077
				c0.238,0,0.414-0.028,0.527-0.076c0.114-0.045,0.192-0.133,0.236-0.262c0.045-0.125,0.067-0.32,0.067-0.572v-6.791
				c0-0.318-0.032-0.545-0.094-0.688c-0.062-0.138-0.169-0.209-0.327-0.209c-0.135,0-0.334,0.062-0.603,0.185h-0.03
				c-0.025,0-0.043-0.023-0.062-0.065c-0.017-0.044-0.009-0.071,0.027-0.076l1.641-0.802l0.063-0.013
				c0.026,0,0.057,0.011,0.082,0.03c0.024,0.023,0.038,0.049,0.038,0.074v6.833l1.764-1.418c0.28-0.22,0.418-0.413,0.418-0.581
				c0-0.217-0.255-0.328-0.75-0.328c-0.023,0-0.036-0.025-0.036-0.077c0-0.056,0.013-0.077,0.036-0.077
				c0.235,0,0.418,0.003,0.54,0.009l0.96,0.013l0.88-0.013c0.113-0.005,0.271-0.009,0.476-0.009c0.022,0,0.034,0.022,0.034,0.077
				c0,0.051-0.012,0.077-0.034,0.077c-0.325,0-0.688,0.082-1.079,0.236c-0.395,0.159-0.792,0.395-1.184,0.711l-0.762,0.601
				l1.669,2.302c0.435,0.605,0.944,0.91,1.508,0.91C28.872,91.244,28.885,91.267,28.885,91.321z"/>
			<path style="fill:#58452A;" d="M33.564,91.321c0-0.054,0.009-0.077,0.029-0.077c0.232,0,0.41-0.028,0.53-0.076
				c0.116-0.045,0.197-0.133,0.243-0.262c0.045-0.125,0.065-0.32,0.065-0.572v-2.455c0-0.317-0.033-0.544-0.098-0.686
				c-0.069-0.14-0.178-0.211-0.332-0.211c-0.163,0-0.36,0.06-0.599,0.189h-0.01c-0.036,0-0.063-0.028-0.078-0.073
				c-0.018-0.04-0.014-0.07,0.011-0.089l1.71-0.788l0.05-0.012c0.02,0,0.042,0.012,0.067,0.03c0.025,0.023,0.042,0.048,0.042,0.077
				c0,0.058-0.003,0.234-0.016,0.521c-0.007,0.293-0.01,0.632-0.01,1.03v2.467c0,0.265,0.023,0.457,0.063,0.579
				c0.045,0.123,0.127,0.21,0.237,0.255c0.115,0.049,0.291,0.076,0.528,0.076c0.023,0,0.036,0.023,0.036,0.077
				c0,0.05-0.013,0.078-0.036,0.078c-0.203,0-0.365-0.005-0.487-0.015L34.8,91.371l-0.712,0.014c-0.125,0.01-0.29,0.015-0.495,0.015
				C33.573,91.399,33.564,91.371,33.564,91.321z M34.265,84.529c-0.1-0.098-0.15-0.233-0.15-0.41c0-0.175,0.05-0.31,0.15-0.407
				c0.103-0.095,0.242-0.143,0.43-0.143c0.174,0,0.312,0.049,0.404,0.143c0.098,0.096,0.148,0.232,0.148,0.407
				c0,0.177-0.05,0.312-0.148,0.41c-0.092,0.092-0.23,0.14-0.404,0.14C34.506,84.669,34.368,84.621,34.265,84.529z"/>
			<path style="fill:#58452A;" d="M46.487,90.648c0.036,0,0.058,0.024,0.075,0.07c0.011,0.042,0.005,0.074-0.022,0.092l-1.447,0.679
				c-0.049,0.02-0.085,0.03-0.105,0.03c-0.109,0-0.209-0.095-0.287-0.289c-0.08-0.193-0.123-0.46-0.129-0.802
				c-0.325,0.342-0.668,0.619-1.024,0.827c-0.352,0.21-0.747,0.316-1.186,0.316c-0.367,0-0.708-0.105-1.019-0.316
				c-0.309-0.209-0.559-0.505-0.751-0.886c-0.187-0.382-0.283-0.819-0.283-1.305c0-0.624,0.157-1.151,0.462-1.594
				c0.303-0.439,0.694-0.767,1.157-0.986c0.462-0.22,0.92-0.327,1.378-0.327c0.467,0,0.887,0.117,1.266,0.34v-2.941
				c0-0.316-0.037-0.544-0.102-0.686c-0.065-0.138-0.178-0.207-0.332-0.207c-0.116,0-0.318,0.059-0.608,0.185h-0.027
				c-0.033,0-0.057-0.022-0.071-0.062c-0.01-0.04-0.005-0.07,0.02-0.083l1.67-0.815c0.014-0.011,0.04-0.013,0.067-0.013
				c0.017,0,0.036,0.011,0.069,0.03c0.031,0.023,0.049,0.049,0.049,0.074v7.975c0,0.317,0.032,0.544,0.11,0.684
				c0.075,0.142,0.195,0.21,0.362,0.21c0.252,0,0.481-0.062,0.682-0.185L46.487,90.648z M43.753,90.868
				c0.272-0.152,0.542-0.37,0.819-0.654v-2.89c-0.213-0.285-0.443-0.512-0.699-0.668c-0.256-0.16-0.559-0.236-0.922-0.236
				c-0.548,0-0.984,0.192-1.304,0.583c-0.323,0.39-0.481,0.942-0.481,1.663c0,0.482,0.07,0.906,0.222,1.274
				c0.149,0.367,0.355,0.654,0.613,0.854c0.262,0.201,0.55,0.304,0.875,0.304C43.191,91.098,43.485,91.022,43.753,90.868z"/>
			<path style="fill:#58452A;" d="M52.024,87.859c0.203,0.18,0.499,0.367,0.882,0.57c0.307,0.16,0.546,0.295,0.717,0.41
				c0.169,0.111,0.316,0.258,0.439,0.443c0.122,0.183,0.185,0.407,0.185,0.67c0,0.45-0.169,0.826-0.499,1.133
				c-0.332,0.309-0.787,0.459-1.356,0.459c-0.46,0-0.884-0.132-1.26-0.395c-0.052-0.036-0.078-0.089-0.078-0.158l-0.027-1.026
				c0-0.025,0.027-0.038,0.075-0.043c0.043-0.007,0.076,0.007,0.082,0.031c0.167,0.439,0.387,0.773,0.654,1
				c0.267,0.225,0.574,0.34,0.926,0.34c0.29,0,0.507-0.069,0.659-0.207c0.149-0.143,0.212-0.35,0.194-0.621
				c-0.009-0.332-0.112-0.586-0.306-0.767c-0.202-0.18-0.494-0.365-0.89-0.557c-0.289-0.138-0.519-0.269-0.688-0.383
				c-0.17-0.109-0.316-0.263-0.434-0.443c-0.12-0.185-0.177-0.415-0.177-0.684c0-0.474,0.177-0.834,0.531-1.086
				c0.353-0.249,0.772-0.372,1.255-0.372c0.35,0,0.669,0.063,0.96,0.192c0.05,0.018,0.082,0.036,0.1,0.063
				c0.014,0.02,0.019,0.051,0.019,0.086c0,0.176-0.003,0.309-0.014,0.406l-0.015,0.55c0,0.02-0.029,0.028-0.08,0.028
				c-0.05,0-0.078-0.008-0.078-0.028c0-0.179-0.067-0.357-0.21-0.517c-0.136-0.165-0.312-0.294-0.522-0.387
				c-0.211-0.098-0.423-0.145-0.63-0.145c-0.22,0-0.394,0.058-0.523,0.175c-0.13,0.119-0.189,0.299-0.189,0.535
				C51.724,87.439,51.822,87.68,52.024,87.859z"/>
			<path style="fill:#58452A;" d="M73.429,86.837c-0.015,0.293-0.017,0.632-0.017,1.03v4.161c0,0.595-0.062,1.086-0.182,1.468
				c-0.116,0.382-0.305,0.7-0.57,0.952c-0.261,0.252-0.629,0.474-1.102,0.657c-0.016,0.009-0.037-0.011-0.056-0.058
				c-0.026-0.049-0.028-0.077-0.011-0.085c0.432-0.185,0.734-0.479,0.908-0.88c0.172-0.403,0.261-0.986,0.261-1.751v-4.45
				c0-0.317-0.03-0.544-0.09-0.686c-0.06-0.14-0.167-0.211-0.316-0.211c-0.154,0-0.357,0.06-0.604,0.189h-0.013
				c-0.045,0-0.076-0.028-0.089-0.073c-0.018-0.04-0.009-0.07,0.025-0.089l1.711-0.788l0.036-0.012c0.033,0,0.064,0.012,0.086,0.03
				c0.023,0.023,0.03,0.048,0.03,0.077C73.436,86.375,73.434,86.55,73.429,86.837z M72.501,84.529
				c-0.107-0.098-0.15-0.233-0.15-0.41c0-0.175,0.043-0.31,0.15-0.407c0.096-0.095,0.24-0.143,0.425-0.143
				c0.178,0,0.309,0.049,0.405,0.143c0.098,0.096,0.143,0.232,0.143,0.407c0,0.177-0.045,0.312-0.143,0.41
				c-0.096,0.092-0.227,0.14-0.405,0.14C72.741,84.669,72.597,84.621,72.501,84.529z"/>
			<path style="fill:#58452A;" d="M82.874,90.662c0.025,0,0.05,0.015,0.074,0.045c0.021,0.031,0.024,0.062,0.004,0.086
				c-0.575,0.509-1.219,0.766-1.917,0.766c-0.512,0-0.94-0.12-1.298-0.355c-0.363-0.238-0.635-0.547-0.827-0.933
				c-0.185-0.387-0.281-0.797-0.281-1.236c0-0.518,0.122-0.993,0.37-1.424c0.242-0.437,0.579-0.779,1-1.031
				c0.428-0.247,0.894-0.37,1.403-0.37c0.492,0,0.864,0.129,1.129,0.392c0.265,0.262,0.395,0.632,0.395,1.106
				c0,0.122-0.01,0.207-0.036,0.263c-0.017,0.049-0.057,0.078-0.106,0.078l-3.262,0.012c-0.018,0.195-0.023,0.35-0.023,0.474
				c0,0.761,0.178,1.38,0.537,1.854c0.358,0.472,0.867,0.709,1.512,0.709c0.262,0,0.487-0.037,0.675-0.107
				c0.189-0.067,0.402-0.177,0.639-0.329H82.874z M80.036,86.845c-0.245,0.252-0.407,0.599-0.484,1.046l2.495-0.051
				c0-0.446-0.096-0.787-0.29-1.022c-0.19-0.229-0.457-0.346-0.789-0.346C80.594,86.471,80.283,86.595,80.036,86.845z"/>
			<path style="fill:#58452A;" d="M96.218,86.407c0,0.051-0.014,0.077-0.04,0.077c-0.212,0-0.394,0.071-0.548,0.212
				c-0.151,0.14-0.303,0.391-0.454,0.748l-1.627,3.941c-0.01,0.038-0.057,0.055-0.149,0.055c-0.083,0-0.135-0.016-0.142-0.055
				l-1.481-3.192l-1.344,3.192c-0.009,0.038-0.058,0.055-0.145,0.055c-0.085,0-0.133-0.016-0.145-0.055l-1.841-3.968
				c-0.169-0.376-0.323-0.625-0.44-0.748c-0.116-0.125-0.261-0.185-0.437-0.185c-0.025,0-0.04-0.025-0.04-0.077
				c0-0.056,0.015-0.077,0.04-0.077c0.176,0,0.31,0.003,0.407,0.009l0.499,0.013l0.79-0.013c0.132-0.005,0.318-0.009,0.562-0.009
				c0.026,0,0.043,0.022,0.043,0.077c0,0.051-0.017,0.077-0.043,0.077c-0.244,0-0.43,0.025-0.562,0.075
				c-0.13,0.047-0.2,0.13-0.2,0.243c0,0.06,0.018,0.125,0.057,0.196l1.601,3.378l1.039-2.496l-0.213-0.462
				c-0.172-0.376-0.319-0.625-0.434-0.748c-0.116-0.125-0.252-0.185-0.419-0.185c-0.02,0-0.026-0.025-0.026-0.077
				c0-0.056,0.006-0.077,0.026-0.077c0.177,0,0.303,0.003,0.394,0.009l0.487,0.013l0.853-0.013c0.125-0.005,0.291-0.009,0.5-0.009
				c0.027,0,0.042,0.022,0.042,0.077c0,0.051-0.015,0.077-0.042,0.077c-0.5,0-0.748,0.105-0.748,0.318
				c0,0.06,0.017,0.125,0.05,0.196l1.596,3.406l1.231-3.025c0.062-0.131,0.094-0.262,0.094-0.382c0-0.176-0.082-0.302-0.249-0.39
				c-0.167-0.078-0.428-0.123-0.787-0.123c-0.02,0-0.033-0.025-0.033-0.077c0-0.056,0.013-0.077,0.033-0.077
				c0.235,0,0.415,0.003,0.537,0.009l0.787,0.013l0.474-0.013c0.088-0.005,0.223-0.009,0.409-0.009
				C96.204,86.33,96.218,86.351,96.218,86.407z"/>
			<path style="fill:#58452A;" d="M104.712,90.662c0.023,0,0.047,0.015,0.069,0.045c0.028,0.031,0.028,0.062,0.008,0.086
				c-0.577,0.509-1.214,0.766-1.921,0.766c-0.505,0-0.94-0.12-1.299-0.355c-0.358-0.238-0.628-0.547-0.821-0.933
				c-0.186-0.387-0.282-0.797-0.282-1.236c0-0.518,0.123-0.993,0.367-1.424c0.249-0.437,0.582-0.779,1.007-1.031
				c0.425-0.247,0.893-0.37,1.398-0.37c0.492,0,0.868,0.129,1.131,0.392c0.263,0.262,0.396,0.632,0.396,1.106
				c0,0.122-0.015,0.207-0.035,0.263c-0.022,0.049-0.06,0.078-0.111,0.078l-3.256,0.012c-0.02,0.195-0.031,0.35-0.031,0.474
				c0,0.761,0.18,1.38,0.542,1.854c0.356,0.472,0.859,0.709,1.511,0.709c0.262,0,0.49-0.037,0.672-0.107
				c0.19-0.067,0.403-0.177,0.641-0.329H104.712z M101.875,86.845c-0.247,0.252-0.408,0.599-0.488,1.046l2.498-0.051
				c0-0.446-0.098-0.787-0.295-1.022c-0.189-0.229-0.455-0.346-0.784-0.346C102.427,86.471,102.116,86.595,101.875,86.845z"/>
			<path style="fill:#58452A;" d="M109.389,91.321c0-0.054,0.013-0.077,0.04-0.077c0.236,0,0.415-0.028,0.525-0.076
				c0.112-0.045,0.196-0.133,0.24-0.262c0.042-0.125,0.065-0.32,0.065-0.572v-6.791c0-0.318-0.033-0.545-0.093-0.688
				c-0.06-0.138-0.17-0.209-0.332-0.209c-0.125,0-0.329,0.062-0.601,0.185h-0.026c-0.029,0-0.049-0.023-0.061-0.065
				c-0.013-0.044-0.008-0.071,0.019-0.076l1.684-0.802c0.018-0.011,0.037-0.013,0.063-0.013c0.022,0,0.045,0.011,0.074,0.03
				c0.031,0.023,0.048,0.049,0.048,0.074v8.356c0,0.252,0.018,0.445,0.06,0.565c0.034,0.125,0.112,0.212,0.229,0.263
				c0.116,0.054,0.289,0.082,0.524,0.082c0.031,0,0.038,0.023,0.038,0.077c0,0.05-0.007,0.078-0.038,0.078
				c-0.192,0-0.352-0.005-0.472-0.015l-0.735-0.014l-0.711,0.014c-0.125,0.01-0.289,0.015-0.5,0.015
				C109.402,91.399,109.389,91.371,109.389,91.321z"/>
			<path style="fill:#58452A;" d="M116.327,91.321c0-0.054,0.013-0.077,0.04-0.077c0.238,0,0.412-0.028,0.523-0.076
				c0.114-0.045,0.196-0.133,0.241-0.262c0.04-0.125,0.063-0.32,0.063-0.572v-6.791c0-0.318-0.032-0.545-0.092-0.688
				c-0.058-0.138-0.172-0.209-0.328-0.209c-0.127,0-0.334,0.062-0.603,0.185h-0.025c-0.029,0-0.047-0.023-0.063-0.065
				c-0.012-0.044-0.005-0.071,0.023-0.076l1.679-0.802c0.018-0.011,0.043-0.013,0.065-0.013c0.021,0,0.042,0.011,0.073,0.03
				c0.035,0.023,0.049,0.049,0.049,0.074v8.356c0,0.252,0.016,0.445,0.057,0.565c0.04,0.125,0.118,0.212,0.23,0.263
				c0.117,0.054,0.291,0.082,0.527,0.082c0.03,0,0.037,0.023,0.037,0.077c0,0.05-0.007,0.078-0.037,0.078
				c-0.194,0-0.352-0.005-0.475-0.015l-0.734-0.014l-0.712,0.014c-0.122,0.01-0.29,0.015-0.497,0.015
				C116.34,91.399,116.327,91.371,116.327,91.321z"/>
			<path style="fill:#58452A;" d="M127.495,90.662c0.028,0,0.051,0.015,0.076,0.045c0.018,0.031,0.023,0.062,0.008,0.086
				c-0.58,0.509-1.22,0.766-1.919,0.766c-0.51,0-0.944-0.12-1.302-0.355c-0.359-0.238-0.634-0.547-0.826-0.933
				c-0.187-0.387-0.278-0.797-0.278-1.236c0-0.518,0.122-0.993,0.369-1.424c0.243-0.437,0.58-0.779,1.002-1.031
				c0.425-0.247,0.892-0.37,1.4-0.37c0.492,0,0.867,0.129,1.131,0.392c0.262,0.262,0.396,0.632,0.396,1.106
				c0,0.122-0.012,0.207-0.035,0.263c-0.022,0.049-0.056,0.078-0.112,0.078l-3.258,0.012c-0.017,0.195-0.025,0.35-0.025,0.474
				c0,0.761,0.182,1.38,0.539,1.854c0.359,0.472,0.862,0.709,1.514,0.709c0.256,0,0.487-0.037,0.674-0.107
				c0.19-0.067,0.402-0.177,0.641-0.329H127.495z M124.66,86.845c-0.249,0.252-0.409,0.599-0.487,1.046l2.494-0.051
				c0-0.446-0.095-0.787-0.287-1.022c-0.192-0.229-0.454-0.346-0.79-0.346C125.215,86.471,124.907,86.595,124.66,86.845z"/>
			<path style="fill:#58452A;" d="M135.855,86.363c0.176,0.108,0.259,0.236,0.259,0.385c0,0.113-0.032,0.209-0.11,0.29
				c-0.073,0.076-0.183,0.117-0.32,0.117c-0.078,0-0.145-0.017-0.203-0.044c-0.056-0.033-0.125-0.082-0.207-0.142
				c-0.078-0.071-0.15-0.122-0.222-0.158c-0.074-0.032-0.154-0.052-0.252-0.052c-0.109,0-0.23,0.05-0.36,0.147
				c-0.127,0.092-0.324,0.302-0.601,0.615v2.812c0,0.265,0.033,0.457,0.1,0.579c0.067,0.123,0.192,0.21,0.363,0.255
				c0.174,0.049,0.448,0.076,0.819,0.076c0.032,0,0.05,0.023,0.05,0.077c0,0.05-0.018,0.078-0.05,0.078
				c-0.283,0-0.51-0.005-0.675-0.015l-0.972-0.014l-0.72,0.014c-0.115,0.01-0.27,0.015-0.477,0.015
				c-0.022,0-0.036-0.029-0.036-0.078c0-0.054,0.015-0.077,0.036-0.077c0.239,0,0.414-0.028,0.528-0.076
				c0.114-0.045,0.19-0.131,0.23-0.255c0.04-0.122,0.058-0.314,0.058-0.579v-2.6c0-0.296-0.035-0.514-0.105-0.646
				c-0.07-0.131-0.186-0.195-0.355-0.195c-0.143,0-0.376,0.063-0.711,0.195h-0.028c-0.032,0-0.056-0.02-0.069-0.058
				c-0.013-0.038-0.003-0.065,0.03-0.087l1.524-0.721l0.08-0.012c0.082,0,0.161,0.098,0.252,0.303
				c0.085,0.201,0.127,0.457,0.127,0.777v0.007c0.363-0.418,0.65-0.705,0.859-0.859c0.207-0.153,0.409-0.229,0.604-0.229
				C135.494,86.21,135.681,86.26,135.855,86.363z"/>
			<path style="fill:#58452A;" d="M145.721,86.407c0,0.051-0.012,0.077-0.038,0.077c-0.219,0-0.404,0.082-0.566,0.236
				c-0.158,0.159-0.309,0.417-0.447,0.777l-1.606,4.269c-0.322,0.852-0.627,1.514-0.908,1.995c-0.285,0.475-0.579,0.817-0.884,1.022
				c-0.3,0.207-0.648,0.309-1.042,0.309c-0.19,0-0.352-0.045-0.481-0.13c-0.128-0.087-0.188-0.216-0.188-0.382
				c0-0.125,0.036-0.219,0.118-0.289c0.075-0.072,0.173-0.109,0.287-0.109c0.118,0,0.209,0.015,0.29,0.042
				c0.075,0.025,0.162,0.069,0.247,0.13c0.018,0.008,0.068,0.035,0.155,0.078c0.082,0.043,0.185,0.065,0.307,0.065
				c0.212,0,0.409-0.089,0.597-0.274c0.191-0.185,0.39-0.494,0.603-0.926c0.214-0.434,0.469-1.033,0.761-1.796l-2.001-4.086
				c-0.2-0.387-0.355-0.635-0.459-0.754c-0.103-0.12-0.238-0.18-0.409-0.18c-0.016,0-0.028-0.025-0.028-0.077
				c0-0.056,0.011-0.077,0.028-0.077l0.446,0.009c0.108,0.011,0.251,0.013,0.435,0.013l0.84-0.013
				c0.122-0.005,0.294-0.009,0.515-0.009c0.017,0,0.027,0.022,0.027,0.077c0,0.051-0.01,0.077-0.027,0.077
				c-0.512,0-0.767,0.103-0.767,0.303c0,0.05,0.028,0.122,0.068,0.21l1.735,3.56l1.052-3.025c0.07-0.209,0.109-0.374,0.109-0.494
				c0-0.203-0.083-0.343-0.243-0.432c-0.154-0.078-0.414-0.123-0.773-0.123c-0.018,0-0.026-0.025-0.026-0.077
				c0-0.056,0.008-0.077,0.026-0.077c0.237,0,0.415,0.003,0.537,0.009l0.791,0.013l0.476-0.013c0.085-0.005,0.219-0.009,0.404-0.009
				C145.709,86.33,145.721,86.351,145.721,86.407z"/>
		</g>
		<path style="fill:#C0B987;" d="M191.217,29.344c-0.341-0.902-0.853-1.643-1.539-2.219c-0.622-0.521-1.316-0.837-2.082-0.949
			c-0.768-0.116-1.532-0.016-2.291,0.299c-0.761,0.316-1.422,0.808-1.984,1.482c-0.554,0.661-1.015,1.458-1.365,2.382
			c-0.269,0.686-0.686,2.108-0.779,2.979c-0.817,7.628-1.347,8.24-2.04,9.669c-0.668,1.372-1.685,3.021-3.317,4.014
			c-2.384-1.741-4.366-3.763-5.938-6.067c-1.035-1.505-1.908-3.241-2.631-5.203c-0.717-1.962-1.109-3.707-1.178-5.23
			c0.474-0.236,1.461-0.77,2.97-1.597c1.389-0.779,2.333-1.336,2.845-1.674c3.062-1.967,4.594-3.971,4.594-6.016
			c0-0.916-0.336-1.682-1.006-2.299c-0.664-0.617-1.534-0.927-2.601-0.927c-1.979,0-3.797,1.007-5.459,3.02
			c-0.911,1.119-1.648,2.552-2.205,4.301c-0.56,1.756-0.84,3.544-0.84,5.372v0.049v0.102l-0.176,0.103
			c-5.446,3.093-8.173,6.7-8.173,10.809c0,1.815,0.435,3.404,1.309,4.776c0.867,1.371,2.113,2.427,3.73,3.171
			c1.614,0.744,3.465,1.116,5.546,1.116c2.64,0,5.136-0.608,7.486-1.826l0.203-0.102c0-0.02,0.028-0.033,0.075-0.051
			c2.051,1.233,4.159,1.852,6.323,1.852c1.944,0,3.736-0.467,5.172-1.663c0.537-0.447,0.013-1.033-0.566-0.672
			c-0.927,0.572-2.112,0.786-3.466,0.786c-1.759,0-3.5-0.539-5.228-1.623l-0.123-0.077c0.86-0.628,1.759-1.358,2.547-2.311
			c2.281-2.758,2.351-6.359,2.843-11.076c0.076-0.75,0.229-1.471,0.425-2.159c0.357-1.26,0.873-2.291,1.544-3.093
			c0.695-0.83,1.478-1.318,2.34-1.467c0.867-0.153,1.637,0.063,2.331,0.643c1.812,1.521,2.654,3.665,0.051,8.156
			c-1.204,1.992,1.011,2.353,2.263-0.648c0.356-0.848,0.725-2.111,0.795-3.179C191.69,31.226,191.555,30.242,191.217,29.344z
			 M166.05,28.697c0-1.708,0.276-3.31,0.836-4.81c0.558-1.496,1.305-2.687,2.244-3.58c0.94-0.886,1.953-1.331,3.037-1.331
			c0.74,0,1.337,0.204,1.785,0.609c0.449,0.408,0.671,0.974,0.671,1.702c0,0.846-0.275,1.736-0.834,2.676
			c-0.556,0.938-1.302,1.758-2.232,2.45c-1.236,0.967-3.062,2.089-5.483,3.377l-0.023-0.432V28.697z M168.204,49.487
			c-2.723,0-4.991-0.862-6.8-2.576c-1.812-1.719-2.716-3.87-2.716-6.457c0-3.471,1.894-6.416,5.683-8.835l0.029,0.127
			c0.252,3.471,1.202,6.681,2.843,9.631c1.637,2.955,3.754,5.277,6.345,6.969C171.878,49.106,170.084,49.487,168.204,49.487z"/>
		<g>
			<path style="fill:#C0B987;" d="M28.789,91.321c0,0.05-0.012,0.078-0.04,0.078c-0.201,0-0.361-0.005-0.482-0.015l-0.712-0.014
				l-0.946,0.014c-0.14,0.01-0.329,0.015-0.563,0.015c-0.017,0-0.027-0.029-0.027-0.078c0-0.054,0.01-0.077,0.027-0.077
				c0.436,0,0.652-0.086,0.652-0.253c0-0.078-0.036-0.174-0.118-0.289l-1.613-2.196l-0.657,0.514v1.314
				c0,0.252,0.022,0.447,0.063,0.572c0.047,0.129,0.123,0.216,0.239,0.262c0.117,0.049,0.289,0.076,0.523,0.076
				c0.029,0,0.04,0.023,0.04,0.077c0,0.05-0.011,0.078-0.04,0.078c-0.198,0-0.362-0.005-0.483-0.015l-0.711-0.014l-0.71,0.014
				c-0.122,0.01-0.282,0.015-0.488,0.015c-0.022,0-0.034-0.029-0.034-0.078c0-0.054,0.012-0.077,0.034-0.077
				c0.24,0,0.416-0.028,0.527-0.076c0.114-0.045,0.196-0.133,0.237-0.262c0.046-0.125,0.07-0.32,0.07-0.572v-6.791
				c0-0.318-0.035-0.545-0.095-0.688c-0.062-0.138-0.169-0.209-0.327-0.209c-0.136,0-0.334,0.062-0.604,0.185h-0.03
				c-0.025,0-0.045-0.023-0.065-0.065c-0.015-0.044-0.009-0.071,0.027-0.076l1.644-0.802l0.063-0.013
				c0.027,0,0.056,0.011,0.082,0.03c0.023,0.023,0.038,0.049,0.038,0.074v6.833l1.763-1.418c0.281-0.22,0.421-0.413,0.421-0.581
				c0-0.217-0.256-0.328-0.751-0.328c-0.024,0-0.036-0.025-0.036-0.077c0-0.056,0.012-0.077,0.036-0.077
				c0.234,0,0.419,0.003,0.539,0.009l0.962,0.013l0.879-0.013c0.114-0.005,0.27-0.009,0.474-0.009c0.023,0,0.036,0.022,0.036,0.077
				c0,0.051-0.013,0.077-0.036,0.077c-0.323,0-0.684,0.082-1.079,0.236c-0.396,0.159-0.791,0.395-1.184,0.711l-0.761,0.601
				l1.67,2.302c0.434,0.605,0.942,0.91,1.506,0.91C28.777,91.244,28.789,91.267,28.789,91.321z"/>
			<path style="fill:#C0B987;" d="M33.468,91.321c0-0.054,0.009-0.077,0.029-0.077c0.235,0,0.409-0.028,0.532-0.076
				c0.116-0.045,0.196-0.133,0.242-0.262c0.043-0.125,0.065-0.32,0.065-0.572v-2.455c0-0.317-0.032-0.544-0.096-0.686
				c-0.072-0.14-0.181-0.211-0.336-0.211c-0.16,0-0.355,0.06-0.595,0.189h-0.011c-0.036,0-0.062-0.028-0.077-0.073
				c-0.017-0.04-0.015-0.07,0.01-0.089l1.712-0.788l0.049-0.012c0.018,0,0.042,0.012,0.065,0.03
				c0.028,0.023,0.042,0.048,0.042,0.077c0,0.058-0.005,0.234-0.014,0.521c-0.008,0.293-0.013,0.632-0.013,1.03v2.467
				c0,0.265,0.022,0.457,0.065,0.579c0.045,0.123,0.123,0.21,0.235,0.255c0.114,0.049,0.292,0.076,0.528,0.076
				c0.028,0,0.038,0.023,0.038,0.077c0,0.05-0.01,0.078-0.038,0.078c-0.201,0-0.363-0.005-0.484-0.015l-0.71-0.014l-0.71,0.014
				c-0.127,0.01-0.29,0.015-0.497,0.015C33.476,91.399,33.468,91.371,33.468,91.321z M34.166,84.529
				c-0.096-0.098-0.145-0.233-0.145-0.41c0-0.175,0.049-0.31,0.145-0.407c0.105-0.095,0.245-0.143,0.43-0.143
				c0.176,0,0.314,0.049,0.407,0.143c0.096,0.096,0.147,0.232,0.147,0.407c0,0.177-0.051,0.312-0.147,0.41
				c-0.093,0.092-0.231,0.14-0.407,0.14C34.412,84.669,34.272,84.621,34.166,84.529z"/>
			<path style="fill:#C0B987;" d="M46.391,90.648c0.036,0,0.056,0.024,0.076,0.07c0.011,0.042,0.006,0.074-0.025,0.092l-1.443,0.679
				c-0.051,0.02-0.087,0.03-0.108,0.03c-0.109,0-0.21-0.095-0.284-0.289c-0.082-0.193-0.126-0.46-0.131-0.802
				c-0.325,0.342-0.668,0.619-1.022,0.827c-0.355,0.21-0.749,0.316-1.187,0.316c-0.368,0-0.707-0.105-1.018-0.316
				c-0.309-0.209-0.56-0.505-0.752-0.886c-0.187-0.382-0.282-0.819-0.282-1.305c0-0.624,0.156-1.151,0.462-1.594
				c0.305-0.439,0.691-0.767,1.156-0.986c0.463-0.22,0.922-0.327,1.378-0.327c0.467,0,0.89,0.117,1.266,0.34v-2.941
				c0-0.316-0.038-0.544-0.102-0.686c-0.065-0.138-0.178-0.207-0.334-0.207c-0.115,0-0.316,0.059-0.607,0.185h-0.025
				c-0.035,0-0.058-0.022-0.073-0.062c-0.01-0.04-0.005-0.07,0.018-0.083l1.672-0.815c0.017-0.011,0.04-0.013,0.065-0.013
				c0.018,0,0.038,0.011,0.071,0.03c0.032,0.023,0.049,0.049,0.049,0.074v7.975c0,0.317,0.033,0.544,0.111,0.684
				c0.074,0.142,0.192,0.21,0.363,0.21c0.251,0,0.48-0.062,0.681-0.185L46.391,90.648z M43.659,90.868
				c0.271-0.152,0.541-0.37,0.817-0.654v-2.89c-0.212-0.285-0.442-0.512-0.699-0.668c-0.256-0.16-0.559-0.236-0.92-0.236
				c-0.55,0-0.984,0.192-1.305,0.583c-0.324,0.39-0.481,0.942-0.481,1.663c0,0.482,0.073,0.906,0.222,1.274
				c0.15,0.367,0.354,0.654,0.614,0.854c0.259,0.201,0.55,0.304,0.877,0.304C43.093,91.098,43.386,91.022,43.659,90.868z"/>
			<path style="fill:#C0B987;" d="M51.928,87.859c0.203,0.18,0.499,0.367,0.88,0.57c0.31,0.16,0.548,0.295,0.719,0.41
				c0.17,0.111,0.318,0.258,0.44,0.443c0.122,0.183,0.183,0.407,0.183,0.67c0,0.45-0.167,0.826-0.497,1.133
				c-0.332,0.309-0.786,0.459-1.356,0.459c-0.459,0-0.884-0.132-1.258-0.395c-0.055-0.036-0.082-0.089-0.082-0.158l-0.026-1.026
				c0-0.025,0.026-0.038,0.075-0.043c0.043-0.007,0.076,0.007,0.082,0.031c0.167,0.439,0.385,0.773,0.652,1
				c0.267,0.225,0.575,0.34,0.927,0.34c0.29,0,0.507-0.069,0.659-0.207c0.15-0.143,0.213-0.35,0.195-0.621
				c-0.008-0.332-0.111-0.586-0.309-0.767c-0.2-0.18-0.49-0.365-0.888-0.557c-0.289-0.138-0.519-0.269-0.686-0.383
				c-0.173-0.109-0.32-0.263-0.434-0.443c-0.122-0.185-0.178-0.415-0.178-0.684c0-0.474,0.178-0.834,0.53-1.086
				c0.352-0.249,0.772-0.372,1.253-0.372c0.354,0,0.67,0.063,0.96,0.192c0.052,0.018,0.085,0.036,0.103,0.063
				c0.011,0.02,0.016,0.051,0.016,0.086c0,0.176-0.003,0.309-0.013,0.406l-0.017,0.55c0,0.02-0.025,0.028-0.076,0.028
				c-0.053,0-0.08-0.008-0.08-0.028c0-0.179-0.07-0.357-0.211-0.517c-0.136-0.165-0.312-0.294-0.522-0.387
				c-0.21-0.098-0.423-0.145-0.63-0.145c-0.222,0-0.394,0.058-0.522,0.175c-0.129,0.119-0.189,0.299-0.189,0.535
				C51.628,87.439,51.724,87.68,51.928,87.859z"/>
			<path style="fill:#C0B987;" d="M73.331,86.837c-0.013,0.293-0.017,0.632-0.017,1.03v4.161c0,0.595-0.06,1.086-0.18,1.468
				c-0.116,0.382-0.305,0.7-0.569,0.952c-0.262,0.252-0.63,0.474-1.104,0.657c-0.017,0.009-0.036-0.011-0.055-0.058
				c-0.025-0.049-0.027-0.077-0.011-0.085c0.433-0.185,0.734-0.479,0.908-0.88c0.174-0.403,0.262-0.986,0.262-1.751v-4.45
				c0-0.317-0.031-0.544-0.091-0.686c-0.06-0.14-0.165-0.211-0.314-0.211c-0.158,0-0.358,0.06-0.607,0.189h-0.012
				c-0.046,0-0.076-0.028-0.091-0.073c-0.017-0.04-0.007-0.07,0.025-0.089l1.711-0.788l0.038-0.012c0.032,0,0.063,0.012,0.085,0.03
				c0.022,0.023,0.03,0.048,0.03,0.077C73.339,86.375,73.336,86.55,73.331,86.837z M72.405,84.529
				c-0.108-0.098-0.153-0.233-0.153-0.41c0-0.175,0.045-0.31,0.153-0.407c0.096-0.095,0.24-0.143,0.424-0.143
				c0.178,0,0.311,0.049,0.407,0.143c0.096,0.096,0.142,0.232,0.142,0.407c0,0.177-0.045,0.312-0.142,0.41
				c-0.096,0.092-0.229,0.14-0.407,0.14C72.645,84.669,72.501,84.621,72.405,84.529z"/>
			<path style="fill:#C0B987;" d="M82.776,90.662c0.027,0,0.053,0.015,0.076,0.045c0.022,0.031,0.023,0.062,0.005,0.086
				c-0.575,0.509-1.218,0.766-1.917,0.766c-0.511,0-0.944-0.12-1.299-0.355c-0.362-0.238-0.635-0.547-0.824-0.933
				c-0.189-0.387-0.283-0.797-0.283-1.236c0-0.518,0.122-0.993,0.37-1.424c0.242-0.437,0.581-0.779,1.002-1.031
				c0.429-0.247,0.892-0.37,1.399-0.37c0.494,0,0.867,0.129,1.132,0.392c0.264,0.262,0.394,0.632,0.394,1.106
				c0,0.122-0.008,0.207-0.035,0.263c-0.02,0.049-0.057,0.078-0.107,0.078l-3.262,0.012c-0.018,0.195-0.024,0.35-0.024,0.474
				c0,0.761,0.178,1.38,0.538,1.854c0.357,0.472,0.866,0.709,1.51,0.709c0.265,0,0.49-0.037,0.677-0.107
				c0.189-0.067,0.402-0.177,0.638-0.329H82.776z M79.941,86.845c-0.245,0.252-0.407,0.599-0.485,1.046l2.494-0.051
				c0-0.446-0.095-0.787-0.289-1.022c-0.191-0.229-0.456-0.346-0.79-0.346C80.496,86.471,80.188,86.595,79.941,86.845z"/>
			<path style="fill:#C0B987;" d="M96.123,86.407c0,0.051-0.015,0.077-0.042,0.077c-0.209,0-0.395,0.071-0.547,0.212
				c-0.15,0.14-0.303,0.391-0.452,0.748l-1.629,3.941c-0.01,0.038-0.056,0.055-0.147,0.055c-0.085,0-0.136-0.016-0.143-0.055
				l-1.483-3.192l-1.344,3.192c-0.007,0.038-0.057,0.055-0.142,0.055c-0.087,0-0.132-0.016-0.145-0.055l-1.843-3.968
				c-0.169-0.376-0.321-0.625-0.439-0.748c-0.116-0.125-0.262-0.185-0.438-0.185c-0.027,0-0.04-0.025-0.04-0.077
				c0-0.056,0.013-0.077,0.04-0.077c0.176,0,0.311,0.003,0.407,0.009l0.5,0.013l0.787-0.013c0.133-0.005,0.32-0.009,0.565-0.009
				c0.027,0,0.044,0.022,0.044,0.077c0,0.051-0.017,0.077-0.044,0.077c-0.245,0-0.432,0.025-0.565,0.075
				c-0.13,0.047-0.197,0.13-0.197,0.243c0,0.06,0.017,0.125,0.056,0.196l1.599,3.378l1.04-2.496l-0.21-0.462
				c-0.175-0.376-0.322-0.625-0.435-0.748c-0.118-0.125-0.253-0.185-0.42-0.185c-0.02,0-0.025-0.025-0.025-0.077
				c0-0.056,0.005-0.077,0.025-0.077c0.178,0,0.302,0.003,0.394,0.009l0.487,0.013l0.855-0.013c0.123-0.005,0.289-0.009,0.497-0.009
				c0.027,0,0.042,0.022,0.042,0.077c0,0.051-0.015,0.077-0.042,0.077c-0.497,0-0.746,0.105-0.746,0.318
				c0,0.06,0.012,0.125,0.049,0.196l1.594,3.406l1.231-3.025c0.06-0.131,0.095-0.262,0.095-0.382c0-0.176-0.082-0.302-0.248-0.39
				c-0.169-0.078-0.429-0.123-0.789-0.123c-0.02,0-0.031-0.025-0.031-0.077c0-0.056,0.011-0.077,0.031-0.077
				c0.238,0,0.415,0.003,0.539,0.009l0.787,0.013l0.474-0.013c0.089-0.005,0.223-0.009,0.407-0.009
				C96.108,86.33,96.123,86.351,96.123,86.407z"/>
			<path style="fill:#C0B987;" d="M104.614,90.662c0.026,0,0.049,0.015,0.073,0.045c0.025,0.031,0.025,0.062,0.005,0.086
				c-0.575,0.509-1.214,0.766-1.921,0.766c-0.504,0-0.94-0.12-1.298-0.355c-0.357-0.238-0.63-0.547-0.82-0.933
				c-0.187-0.387-0.283-0.797-0.283-1.236c0-0.518,0.122-0.993,0.367-1.424c0.249-0.437,0.582-0.779,1.009-1.031
				c0.425-0.247,0.892-0.37,1.394-0.37c0.494,0,0.872,0.129,1.133,0.392c0.262,0.262,0.395,0.632,0.395,1.106
				c0,0.122-0.015,0.207-0.035,0.263c-0.022,0.049-0.06,0.078-0.11,0.078l-3.258,0.012c-0.018,0.195-0.027,0.35-0.027,0.474
				c0,0.761,0.177,1.38,0.541,1.854c0.357,0.472,0.86,0.709,1.509,0.709c0.263,0,0.492-0.037,0.674-0.107
				c0.189-0.067,0.402-0.177,0.638-0.329H104.614z M101.779,86.845c-0.247,0.252-0.407,0.599-0.488,1.046l2.496-0.051
				c0-0.446-0.095-0.787-0.292-1.022c-0.188-0.229-0.454-0.346-0.783-0.346C102.329,86.471,102.021,86.595,101.779,86.845z"/>
			<path style="fill:#C0B987;" d="M109.293,91.321c0-0.054,0.014-0.077,0.04-0.077c0.236,0,0.414-0.028,0.524-0.076
				c0.115-0.045,0.195-0.133,0.24-0.262c0.042-0.125,0.065-0.32,0.065-0.572v-6.791c0-0.318-0.032-0.545-0.092-0.688
				c-0.06-0.138-0.171-0.209-0.331-0.209c-0.127,0-0.33,0.062-0.601,0.185h-0.027c-0.03,0-0.05-0.023-0.06-0.065
				c-0.013-0.044-0.008-0.071,0.018-0.076l1.683-0.802c0.018-0.011,0.04-0.013,0.063-0.013c0.023,0,0.044,0.011,0.077,0.03
				c0.029,0.023,0.045,0.049,0.045,0.074v8.356c0,0.252,0.016,0.445,0.06,0.565c0.037,0.125,0.112,0.212,0.23,0.263
				c0.115,0.054,0.285,0.082,0.523,0.082c0.029,0,0.036,0.023,0.036,0.077c0,0.05-0.007,0.078-0.036,0.078
				c-0.193,0-0.35-0.005-0.472-0.015l-0.735-0.014l-0.71,0.014c-0.125,0.01-0.29,0.015-0.501,0.015
				C109.307,91.399,109.293,91.371,109.293,91.321z"/>
			<path style="fill:#C0B987;" d="M116.233,91.321c0-0.054,0.012-0.077,0.04-0.077c0.236,0,0.412-0.028,0.521-0.076
				c0.117-0.045,0.196-0.133,0.242-0.262c0.04-0.125,0.063-0.32,0.063-0.572v-6.791c0-0.318-0.033-0.545-0.093-0.688
				c-0.058-0.138-0.172-0.209-0.329-0.209c-0.127,0-0.332,0.062-0.604,0.185h-0.024c-0.03,0-0.047-0.023-0.061-0.065
				c-0.013-0.044-0.006-0.071,0.022-0.076l1.679-0.802c0.018-0.011,0.043-0.013,0.065-0.013c0.018,0,0.042,0.011,0.074,0.03
				c0.033,0.023,0.048,0.049,0.048,0.074v8.356c0,0.252,0.016,0.445,0.057,0.565c0.038,0.125,0.115,0.212,0.229,0.263
				c0.116,0.054,0.289,0.082,0.528,0.082c0.025,0,0.036,0.023,0.036,0.077c0,0.05-0.01,0.078-0.036,0.078
				c-0.196,0-0.356-0.005-0.476-0.015l-0.735-0.014l-0.709,0.014c-0.123,0.01-0.29,0.015-0.497,0.015
				C116.245,91.399,116.233,91.371,116.233,91.321z"/>
			<path style="fill:#C0B987;" d="M127.401,90.662c0.027,0,0.05,0.015,0.072,0.045c0.02,0.031,0.026,0.062,0.01,0.086
				c-0.58,0.509-1.22,0.766-1.919,0.766c-0.51,0-0.942-0.12-1.301-0.355c-0.362-0.238-0.636-0.547-0.827-0.933
				c-0.187-0.387-0.277-0.797-0.277-1.236c0-0.518,0.122-0.993,0.367-1.424c0.243-0.437,0.581-0.779,1.003-1.031
				c0.423-0.247,0.892-0.37,1.402-0.37c0.488,0,0.867,0.129,1.129,0.392c0.262,0.262,0.396,0.632,0.396,1.106
				c0,0.122-0.01,0.207-0.034,0.263c-0.02,0.049-0.058,0.078-0.111,0.078l-3.259,0.012c-0.02,0.195-0.027,0.35-0.027,0.474
				c0,0.761,0.182,1.38,0.539,1.854c0.36,0.472,0.862,0.709,1.514,0.709c0.258,0,0.485-0.037,0.674-0.107
				c0.19-0.067,0.403-0.177,0.641-0.329H127.401z M124.563,86.845c-0.249,0.252-0.41,0.599-0.487,1.046l2.494-0.051
				c0-0.446-0.094-0.787-0.285-1.022c-0.194-0.229-0.454-0.346-0.791-0.346C125.119,86.471,124.812,86.595,124.563,86.845z"/>
			<path style="fill:#C0B987;" d="M135.759,86.363c0.176,0.108,0.26,0.236,0.26,0.385c0,0.113-0.033,0.209-0.111,0.29
				c-0.07,0.076-0.182,0.117-0.32,0.117c-0.077,0-0.145-0.017-0.203-0.044c-0.057-0.033-0.125-0.082-0.205-0.142
				c-0.079-0.071-0.15-0.122-0.224-0.158c-0.071-0.032-0.155-0.052-0.251-0.052c-0.109,0-0.23,0.05-0.359,0.147
				c-0.127,0.092-0.327,0.302-0.601,0.615v2.812c0,0.265,0.035,0.457,0.102,0.579c0.068,0.123,0.191,0.21,0.362,0.255
				c0.175,0.049,0.45,0.076,0.819,0.076c0.033,0,0.049,0.023,0.049,0.077c0,0.05-0.016,0.078-0.049,0.078
				c-0.282,0-0.508-0.005-0.674-0.015l-0.971-0.014l-0.723,0.014c-0.114,0.01-0.27,0.015-0.475,0.015
				c-0.023,0-0.038-0.029-0.038-0.078c0-0.054,0.015-0.077,0.038-0.077c0.236,0,0.412-0.028,0.527-0.076
				c0.115-0.045,0.192-0.131,0.229-0.255c0.042-0.122,0.06-0.314,0.06-0.579v-2.6c0-0.296-0.035-0.514-0.105-0.646
				c-0.069-0.131-0.187-0.195-0.354-0.195c-0.142,0-0.376,0.063-0.712,0.195h-0.025c-0.036,0-0.058-0.02-0.071-0.058
				c-0.012-0.038-0.003-0.065,0.031-0.087l1.525-0.721l0.078-0.012c0.082,0,0.162,0.098,0.252,0.303
				c0.085,0.201,0.127,0.457,0.127,0.777v0.007c0.363-0.418,0.65-0.705,0.859-0.859c0.207-0.153,0.41-0.229,0.605-0.229
				C135.397,86.21,135.584,86.26,135.759,86.363z"/>
			<path style="fill:#C0B987;" d="M145.625,86.407c0,0.051-0.014,0.077-0.04,0.077c-0.216,0-0.402,0.082-0.562,0.236
				c-0.16,0.159-0.31,0.417-0.448,0.777l-1.604,4.269c-0.323,0.852-0.628,1.514-0.91,1.995c-0.285,0.475-0.579,0.817-0.882,1.022
				c-0.301,0.207-0.651,0.309-1.046,0.309c-0.189,0-0.35-0.045-0.479-0.13c-0.127-0.087-0.189-0.216-0.189-0.382
				c0-0.125,0.038-0.219,0.12-0.289c0.076-0.072,0.172-0.109,0.287-0.109c0.117,0,0.209,0.015,0.29,0.042
				c0.077,0.025,0.163,0.069,0.247,0.13c0.018,0.008,0.069,0.035,0.152,0.078c0.083,0.043,0.187,0.065,0.31,0.065
				c0.209,0,0.409-0.089,0.596-0.274c0.19-0.185,0.388-0.494,0.604-0.926c0.212-0.434,0.467-1.033,0.757-1.796l-2.001-4.086
				c-0.196-0.387-0.354-0.635-0.457-0.754c-0.103-0.12-0.24-0.18-0.409-0.18c-0.015,0-0.027-0.025-0.027-0.077
				c0-0.056,0.012-0.077,0.027-0.077l0.447,0.009c0.107,0.011,0.25,0.013,0.435,0.013l0.839-0.013
				c0.122-0.005,0.295-0.009,0.517-0.009c0.016,0,0.025,0.022,0.025,0.077c0,0.051-0.009,0.077-0.025,0.077
				c-0.512,0-0.767,0.103-0.767,0.303c0,0.05,0.027,0.122,0.069,0.21l1.734,3.56l1.049-3.025c0.075-0.209,0.109-0.374,0.109-0.494
				c0-0.203-0.082-0.343-0.239-0.432c-0.156-0.078-0.418-0.123-0.775-0.123c-0.018,0-0.023-0.025-0.023-0.077
				c0-0.056,0.005-0.077,0.023-0.077c0.237,0,0.417,0.003,0.539,0.009l0.79,0.013l0.475-0.013c0.087-0.005,0.22-0.009,0.402-0.009
				C145.611,86.33,145.625,86.351,145.625,86.407z"/>
		</g>
		<linearGradient id="SVGID_7_" gradientUnits="userSpaceOnUse" x1="173.8303" y1="50.8062" x2="173.8303" y2="17.9868">
			<stop  offset="0" style="stop-color:#58452A"/>
			<stop  offset="0.4925" style="stop-color:#FFFFFF"/>
			<stop  offset="1" style="stop-color:#58452A"/>
		</linearGradient>
		<path style="fill:url(#SVGID_7_);" d="M191.217,29.344c-0.341-0.902-0.853-1.643-1.539-2.219
			c-0.622-0.521-1.316-0.837-2.082-0.949c-0.768-0.116-1.532-0.016-2.291,0.299c-0.761,0.316-1.422,0.808-1.984,1.482
			c-0.554,0.661-1.015,1.458-1.365,2.382c-0.269,0.686-0.686,2.108-0.779,2.979c-0.817,7.628-1.347,8.24-2.04,9.669
			c-0.668,1.373-1.685,3.021-3.317,4.013c-2.384-1.74-4.366-3.763-5.938-6.066c-1.035-1.505-1.908-3.241-2.631-5.203
			c-0.717-1.962-1.109-3.707-1.178-5.23c0.474-0.236,1.461-0.77,2.97-1.597c1.389-0.779,2.333-1.336,2.845-1.674
			c3.062-1.967,4.594-3.971,4.594-6.016c0-0.916-0.336-1.682-1.006-2.299c-0.664-0.617-1.534-0.927-2.601-0.927
			c-1.979,0-3.797,1.007-5.459,3.02c-0.911,1.119-1.648,2.552-2.205,4.301c-0.56,1.756-0.84,3.544-0.84,5.372v0.049v0.102
			l-0.176,0.103c-5.446,3.093-8.173,6.7-8.173,10.809c0,1.815,0.435,3.404,1.309,4.776c0.867,1.371,2.113,2.428,3.73,3.171
			c1.614,0.744,3.465,1.116,5.546,1.116c2.64,0,5.136-0.608,7.486-1.826l0.203-0.102c0-0.02,0.028-0.033,0.075-0.05
			c2.051,1.232,4.159,1.851,6.323,1.851c1.944,0,3.736-0.467,5.172-1.663c0.537-0.447,0.013-1.033-0.566-0.672
			c-0.927,0.572-2.112,0.786-3.466,0.786c-1.759,0-3.5-0.539-5.228-1.622l-0.123-0.077c0.86-0.628,1.759-1.358,2.547-2.311
			c2.281-2.758,2.351-6.359,2.843-11.076c0.076-0.75,0.229-1.471,0.425-2.159c0.357-1.26,0.873-2.291,1.544-3.093
			c0.695-0.83,1.478-1.318,2.34-1.467c0.867-0.153,1.637,0.063,2.331,0.643c1.812,1.521,2.654,3.665,0.051,8.156
			c-1.204,1.992,1.011,2.353,2.263-0.648c0.356-0.848,0.725-2.111,0.795-3.179C191.69,31.226,191.555,30.242,191.217,29.344z
			 M166.05,28.697c0-1.708,0.276-3.31,0.836-4.81c0.558-1.496,1.305-2.687,2.244-3.58c0.94-0.886,1.953-1.331,3.037-1.331
			c0.74,0,1.337,0.204,1.785,0.609c0.449,0.408,0.671,0.974,0.671,1.702c0,0.846-0.275,1.736-0.834,2.676
			c-0.556,0.938-1.302,1.758-2.232,2.45c-1.236,0.967-3.062,2.089-5.483,3.377l-0.023-0.432V28.697z M168.204,49.487
			c-2.723,0-4.991-0.862-6.8-2.576c-1.812-1.719-2.716-3.87-2.716-6.457c0-3.471,1.894-6.416,5.683-8.835l0.029,0.127
			c0.252,3.471,1.202,6.681,2.843,9.631c1.637,2.955,3.754,5.278,6.345,6.969C171.878,49.106,170.084,49.487,168.204,49.487z"/>
		<g>
			<linearGradient id="SVGID_8_" gradientUnits="userSpaceOnUse" x1="25.6184" y1="91.3994" x2="25.6184" y2="81.8743">
				<stop  offset="0" style="stop-color:#58452A"/>
				<stop  offset="0.4925" style="stop-color:#FFFFFF"/>
				<stop  offset="1" style="stop-color:#58452A"/>
			</linearGradient>
			<path style="fill:url(#SVGID_8_);" d="M28.789,91.321c0,0.05-0.012,0.078-0.04,0.078c-0.201,0-0.361-0.005-0.482-0.015
				l-0.712-0.014l-0.946,0.014c-0.14,0.01-0.329,0.015-0.563,0.015c-0.017,0-0.027-0.029-0.027-0.078
				c0-0.054,0.01-0.077,0.027-0.077c0.436,0,0.652-0.086,0.652-0.253c0-0.078-0.036-0.174-0.118-0.289l-1.613-2.196l-0.657,0.514
				v1.314c0,0.252,0.022,0.447,0.063,0.572c0.047,0.129,0.123,0.216,0.239,0.262c0.117,0.049,0.289,0.076,0.523,0.076
				c0.029,0,0.04,0.023,0.04,0.077c0,0.05-0.011,0.078-0.04,0.078c-0.198,0-0.362-0.005-0.483-0.015l-0.711-0.014l-0.71,0.014
				c-0.122,0.01-0.282,0.015-0.488,0.015c-0.022,0-0.034-0.029-0.034-0.078c0-0.054,0.012-0.077,0.034-0.077
				c0.24,0,0.416-0.028,0.527-0.076c0.114-0.045,0.196-0.133,0.237-0.262c0.046-0.125,0.07-0.32,0.07-0.572v-6.791
				c0-0.318-0.035-0.545-0.095-0.688c-0.062-0.138-0.169-0.209-0.327-0.209c-0.136,0-0.334,0.062-0.604,0.185h-0.03
				c-0.025,0-0.045-0.023-0.065-0.065c-0.015-0.044-0.009-0.071,0.027-0.076l1.644-0.802l0.063-0.013
				c0.027,0,0.056,0.011,0.082,0.03c0.023,0.023,0.038,0.049,0.038,0.074v6.833l1.763-1.418c0.281-0.22,0.421-0.413,0.421-0.581
				c0-0.217-0.256-0.328-0.751-0.328c-0.024,0-0.036-0.025-0.036-0.077c0-0.056,0.012-0.077,0.036-0.077
				c0.234,0,0.419,0.003,0.539,0.009l0.962,0.013l0.879-0.013c0.114-0.005,0.27-0.009,0.474-0.009c0.023,0,0.036,0.022,0.036,0.077
				c0,0.051-0.013,0.077-0.036,0.077c-0.323,0-0.684,0.082-1.079,0.236c-0.396,0.159-0.791,0.395-1.184,0.711l-0.761,0.601
				l1.67,2.302c0.434,0.605,0.942,0.91,1.506,0.91C28.777,91.244,28.789,91.267,28.789,91.321z"/>
			<linearGradient id="SVGID_9_" gradientUnits="userSpaceOnUse" x1="34.5722" y1="91.3994" x2="34.5722" y2="83.5683">
				<stop  offset="0" style="stop-color:#58452A"/>
				<stop  offset="0.4925" style="stop-color:#FFFFFF"/>
				<stop  offset="1" style="stop-color:#58452A"/>
			</linearGradient>
			<path style="fill:url(#SVGID_9_);" d="M33.468,91.321c0-0.054,0.009-0.077,0.029-0.077c0.235,0,0.409-0.028,0.532-0.076
				c0.116-0.045,0.196-0.133,0.242-0.262c0.043-0.125,0.065-0.32,0.065-0.572v-2.455c0-0.317-0.032-0.544-0.096-0.686
				c-0.072-0.14-0.181-0.211-0.336-0.211c-0.16,0-0.355,0.06-0.595,0.189h-0.011c-0.036,0-0.062-0.028-0.077-0.073
				c-0.017-0.04-0.015-0.07,0.01-0.089l1.712-0.788l0.049-0.012c0.018,0,0.042,0.012,0.065,0.03
				c0.028,0.023,0.042,0.048,0.042,0.077c0,0.058-0.005,0.234-0.014,0.521c-0.008,0.293-0.013,0.632-0.013,1.03v2.467
				c0,0.265,0.022,0.457,0.065,0.579c0.045,0.123,0.123,0.21,0.235,0.255c0.114,0.049,0.292,0.076,0.528,0.076
				c0.028,0,0.038,0.023,0.038,0.077c0,0.05-0.01,0.078-0.038,0.078c-0.201,0-0.363-0.005-0.484-0.015l-0.71-0.014l-0.71,0.014
				c-0.127,0.01-0.29,0.015-0.497,0.015C33.476,91.399,33.468,91.371,33.468,91.321z M34.166,84.529
				c-0.096-0.098-0.145-0.233-0.145-0.41c0-0.175,0.049-0.31,0.145-0.407c0.105-0.095,0.245-0.143,0.43-0.143
				c0.176,0,0.314,0.049,0.407,0.143c0.096,0.096,0.147,0.232,0.147,0.407c0,0.177-0.051,0.312-0.147,0.41
				c-0.093,0.092-0.231,0.14-0.407,0.14C34.412,84.669,34.272,84.621,34.166,84.529z"/>
			<linearGradient id="SVGID_10_" gradientUnits="userSpaceOnUse" x1="43.3436" y1="91.5697" x2="43.3436" y2="81.8743">
				<stop  offset="0" style="stop-color:#58452A"/>
				<stop  offset="0.4925" style="stop-color:#FFFFFF"/>
				<stop  offset="1" style="stop-color:#58452A"/>
			</linearGradient>
			<path style="fill:url(#SVGID_10_);" d="M46.391,90.648c0.036,0,0.056,0.024,0.076,0.07c0.011,0.042,0.006,0.074-0.025,0.092
				l-1.443,0.679c-0.051,0.02-0.087,0.03-0.108,0.03c-0.109,0-0.21-0.095-0.284-0.289c-0.082-0.193-0.126-0.46-0.131-0.802
				c-0.325,0.342-0.668,0.619-1.022,0.827c-0.355,0.21-0.749,0.316-1.187,0.316c-0.368,0-0.707-0.105-1.018-0.316
				c-0.309-0.209-0.56-0.505-0.752-0.886c-0.187-0.382-0.282-0.819-0.282-1.305c0-0.624,0.156-1.151,0.462-1.594
				c0.305-0.439,0.691-0.767,1.156-0.986c0.463-0.22,0.922-0.327,1.378-0.327c0.467,0,0.89,0.117,1.266,0.34v-2.941
				c0-0.316-0.038-0.544-0.102-0.686c-0.065-0.138-0.178-0.207-0.334-0.207c-0.115,0-0.316,0.059-0.607,0.185h-0.025
				c-0.035,0-0.058-0.022-0.073-0.062c-0.01-0.04-0.005-0.07,0.018-0.083l1.672-0.815c0.017-0.011,0.04-0.013,0.065-0.013
				c0.018,0,0.038,0.011,0.071,0.03c0.032,0.023,0.049,0.049,0.049,0.074v7.975c0,0.317,0.033,0.544,0.111,0.684
				c0.074,0.142,0.192,0.21,0.363,0.21c0.251,0,0.48-0.062,0.681-0.185L46.391,90.648z M43.659,90.868
				c0.271-0.152,0.541-0.37,0.817-0.654v-2.89c-0.212-0.285-0.442-0.512-0.699-0.668c-0.256-0.16-0.559-0.236-0.92-0.236
				c-0.55,0-0.984,0.192-1.305,0.583c-0.324,0.39-0.481,0.942-0.481,1.663c0,0.482,0.073,0.906,0.222,1.274
				c0.15,0.367,0.354,0.654,0.614,0.854c0.259,0.201,0.55,0.304,0.877,0.304C43.093,91.098,43.386,91.022,43.659,90.868z"/>
			<linearGradient id="SVGID_11_" gradientUnits="userSpaceOnUse" x1="52.54" y1="91.5445" x2="52.54" y2="86.1714">
				<stop  offset="0" style="stop-color:#58452A"/>
				<stop  offset="0.4925" style="stop-color:#FFFFFF"/>
				<stop  offset="1" style="stop-color:#58452A"/>
			</linearGradient>
			<path style="fill:url(#SVGID_11_);" d="M51.928,87.859c0.203,0.18,0.499,0.367,0.88,0.57c0.31,0.16,0.548,0.295,0.719,0.41
				c0.17,0.111,0.318,0.258,0.44,0.443c0.122,0.183,0.183,0.407,0.183,0.67c0,0.45-0.167,0.826-0.497,1.133
				c-0.332,0.309-0.786,0.459-1.356,0.459c-0.459,0-0.884-0.132-1.258-0.395c-0.055-0.036-0.082-0.089-0.082-0.158l-0.026-1.026
				c0-0.025,0.026-0.038,0.075-0.043c0.043-0.007,0.076,0.007,0.082,0.031c0.167,0.439,0.385,0.773,0.652,1
				c0.267,0.225,0.575,0.34,0.927,0.34c0.29,0,0.507-0.069,0.659-0.207c0.15-0.143,0.213-0.35,0.195-0.621
				c-0.008-0.332-0.111-0.586-0.309-0.767c-0.2-0.18-0.49-0.365-0.888-0.557c-0.289-0.138-0.519-0.269-0.686-0.383
				c-0.173-0.109-0.32-0.263-0.434-0.443c-0.122-0.185-0.178-0.415-0.178-0.684c0-0.474,0.178-0.834,0.53-1.086
				c0.352-0.249,0.772-0.372,1.253-0.372c0.354,0,0.67,0.063,0.96,0.192c0.052,0.018,0.085,0.036,0.103,0.063
				c0.011,0.02,0.016,0.051,0.016,0.086c0,0.176-0.003,0.309-0.013,0.406l-0.017,0.55c0,0.02-0.025,0.028-0.076,0.028
				c-0.053,0-0.08-0.008-0.08-0.028c0-0.179-0.07-0.357-0.211-0.517c-0.136-0.165-0.312-0.294-0.522-0.387
				c-0.21-0.098-0.423-0.145-0.63-0.145c-0.222,0-0.394,0.058-0.522,0.175c-0.129,0.119-0.189,0.299-0.189,0.535
				C51.628,87.439,51.724,87.68,51.928,87.859z"/>
			<linearGradient id="SVGID_12_" gradientUnits="userSpaceOnUse" x1="72.3813" y1="95.1066" x2="72.3813" y2="83.5683">
				<stop  offset="0" style="stop-color:#58452A"/>
				<stop  offset="0.4925" style="stop-color:#FFFFFF"/>
				<stop  offset="1" style="stop-color:#58452A"/>
			</linearGradient>
			<path style="fill:url(#SVGID_12_);" d="M73.331,86.837c-0.013,0.293-0.017,0.632-0.017,1.03v4.161c0,0.595-0.06,1.086-0.18,1.468
				c-0.116,0.382-0.305,0.7-0.569,0.952c-0.262,0.252-0.63,0.474-1.104,0.657c-0.017,0.009-0.036-0.011-0.055-0.058
				c-0.025-0.049-0.027-0.077-0.011-0.085c0.433-0.185,0.734-0.479,0.908-0.88c0.174-0.403,0.262-0.986,0.262-1.751v-4.45
				c0-0.317-0.031-0.544-0.091-0.686c-0.06-0.14-0.165-0.211-0.314-0.211c-0.158,0-0.358,0.06-0.607,0.189h-0.012
				c-0.046,0-0.076-0.028-0.091-0.073c-0.017-0.04-0.007-0.07,0.025-0.089l1.711-0.788l0.038-0.012c0.032,0,0.063,0.012,0.085,0.03
				c0.022,0.023,0.03,0.048,0.03,0.077C73.339,86.375,73.336,86.55,73.331,86.837z M72.405,84.529
				c-0.108-0.098-0.153-0.233-0.153-0.41c0-0.175,0.045-0.31,0.153-0.407c0.096-0.095,0.24-0.143,0.424-0.143
				c0.178,0,0.311,0.049,0.407,0.143c0.096,0.096,0.142,0.232,0.142,0.407c0,0.177-0.045,0.312-0.142,0.41
				c-0.096,0.092-0.229,0.14-0.407,0.14C72.645,84.669,72.501,84.621,72.405,84.529z"/>
			<linearGradient id="SVGID_13_" gradientUnits="userSpaceOnUse" x1="80.7018" y1="91.5593" x2="80.7018" y2="86.2097">
				<stop  offset="0" style="stop-color:#58452A"/>
				<stop  offset="0.4925" style="stop-color:#FFFFFF"/>
				<stop  offset="1" style="stop-color:#58452A"/>
			</linearGradient>
			<path style="fill:url(#SVGID_13_);" d="M82.776,90.662c0.027,0,0.053,0.015,0.076,0.045c0.022,0.031,0.023,0.062,0.005,0.086
				c-0.575,0.509-1.218,0.766-1.917,0.766c-0.511,0-0.944-0.12-1.299-0.355c-0.362-0.238-0.635-0.547-0.824-0.933
				c-0.189-0.387-0.283-0.797-0.283-1.236c0-0.518,0.122-0.993,0.37-1.424c0.242-0.437,0.581-0.779,1.002-1.031
				c0.429-0.247,0.892-0.37,1.399-0.37c0.494,0,0.867,0.129,1.132,0.392c0.264,0.262,0.394,0.632,0.394,1.106
				c0,0.122-0.008,0.207-0.035,0.263c-0.02,0.049-0.057,0.078-0.107,0.078l-3.262,0.012c-0.018,0.195-0.024,0.35-0.024,0.474
				c0,0.761,0.178,1.38,0.538,1.854c0.357,0.472,0.866,0.709,1.51,0.709c0.265,0,0.49-0.037,0.677-0.107
				c0.189-0.067,0.402-0.177,0.638-0.329H82.776z M79.941,86.845c-0.245,0.252-0.407,0.599-0.485,1.046l2.494-0.051
				c0-0.446-0.095-0.787-0.289-1.022c-0.191-0.229-0.456-0.346-0.79-0.346C80.496,86.471,80.188,86.595,79.941,86.845z"/>
			<linearGradient id="SVGID_14_" gradientUnits="userSpaceOnUse" x1="91.7064" y1="91.4393" x2="91.7064" y2="86.3296">
				<stop  offset="0" style="stop-color:#58452A"/>
				<stop  offset="0.4925" style="stop-color:#FFFFFF"/>
				<stop  offset="1" style="stop-color:#58452A"/>
			</linearGradient>
			<path style="fill:url(#SVGID_14_);" d="M96.123,86.407c0,0.051-0.015,0.077-0.042,0.077c-0.209,0-0.395,0.071-0.547,0.212
				c-0.15,0.14-0.303,0.391-0.452,0.748l-1.629,3.941c-0.01,0.038-0.056,0.055-0.147,0.055c-0.085,0-0.136-0.016-0.143-0.055
				l-1.483-3.192l-1.344,3.192c-0.007,0.038-0.057,0.055-0.142,0.055c-0.087,0-0.132-0.016-0.145-0.055l-1.843-3.968
				c-0.169-0.376-0.321-0.625-0.439-0.748c-0.116-0.125-0.262-0.185-0.438-0.185c-0.027,0-0.04-0.025-0.04-0.077
				c0-0.056,0.013-0.077,0.04-0.077c0.176,0,0.311,0.003,0.407,0.009l0.5,0.013l0.787-0.013c0.133-0.005,0.32-0.009,0.565-0.009
				c0.027,0,0.044,0.022,0.044,0.077c0,0.051-0.017,0.077-0.044,0.077c-0.245,0-0.432,0.025-0.565,0.075
				c-0.13,0.047-0.197,0.13-0.197,0.243c0,0.06,0.017,0.125,0.056,0.196l1.599,3.378l1.04-2.496l-0.21-0.462
				c-0.175-0.376-0.322-0.625-0.435-0.748c-0.118-0.125-0.253-0.185-0.42-0.185c-0.02,0-0.025-0.025-0.025-0.077
				c0-0.056,0.005-0.077,0.025-0.077c0.178,0,0.302,0.003,0.394,0.009l0.487,0.013l0.855-0.013c0.123-0.005,0.289-0.009,0.497-0.009
				c0.027,0,0.042,0.022,0.042,0.077c0,0.051-0.015,0.077-0.042,0.077c-0.497,0-0.746,0.105-0.746,0.318
				c0,0.06,0.012,0.125,0.049,0.196l1.594,3.406l1.231-3.025c0.06-0.131,0.095-0.262,0.095-0.382c0-0.176-0.082-0.302-0.248-0.39
				c-0.169-0.078-0.429-0.123-0.789-0.123c-0.02,0-0.031-0.025-0.031-0.077c0-0.056,0.011-0.077,0.031-0.077
				c0.238,0,0.415,0.003,0.539,0.009l0.787,0.013l0.474-0.013c0.089-0.005,0.223-0.009,0.407-0.009
				C96.108,86.33,96.123,86.351,96.123,86.407z"/>
			<linearGradient id="SVGID_15_" gradientUnits="userSpaceOnUse" x1="102.5385" y1="91.5593" x2="102.5385" y2="86.2097">
				<stop  offset="0" style="stop-color:#58452A"/>
				<stop  offset="0.4925" style="stop-color:#FFFFFF"/>
				<stop  offset="1" style="stop-color:#58452A"/>
			</linearGradient>
			<path style="fill:url(#SVGID_15_);" d="M104.614,90.662c0.026,0,0.049,0.015,0.073,0.045c0.025,0.031,0.025,0.062,0.005,0.086
				c-0.575,0.509-1.214,0.766-1.921,0.766c-0.504,0-0.94-0.12-1.298-0.355c-0.357-0.238-0.63-0.547-0.82-0.933
				c-0.187-0.387-0.283-0.797-0.283-1.236c0-0.518,0.122-0.993,0.367-1.424c0.249-0.437,0.582-0.779,1.009-1.031
				c0.425-0.247,0.892-0.37,1.394-0.37c0.494,0,0.872,0.129,1.133,0.392c0.262,0.262,0.395,0.632,0.395,1.106
				c0,0.122-0.015,0.207-0.035,0.263c-0.022,0.049-0.06,0.078-0.11,0.078l-3.258,0.012c-0.018,0.195-0.027,0.35-0.027,0.474
				c0,0.761,0.177,1.38,0.541,1.854c0.357,0.472,0.86,0.709,1.509,0.709c0.263,0,0.492-0.037,0.674-0.107
				c0.189-0.067,0.402-0.177,0.638-0.329H104.614z M101.779,86.845c-0.247,0.252-0.407,0.599-0.488,1.046l2.496-0.051
				c0-0.446-0.095-0.787-0.292-1.022c-0.188-0.229-0.454-0.346-0.783-0.346C102.329,86.471,102.021,86.595,101.779,86.845z"/>
			<linearGradient id="SVGID_16_" gradientUnits="userSpaceOnUse" x1="110.4155" y1="91.3994" x2="110.4155" y2="81.8743">
				<stop  offset="0" style="stop-color:#58452A"/>
				<stop  offset="0.4925" style="stop-color:#FFFFFF"/>
				<stop  offset="1" style="stop-color:#58452A"/>
			</linearGradient>
			<path style="fill:url(#SVGID_16_);" d="M109.293,91.321c0-0.054,0.014-0.077,0.04-0.077c0.236,0,0.414-0.028,0.524-0.076
				c0.115-0.045,0.195-0.133,0.24-0.262c0.042-0.125,0.065-0.32,0.065-0.572v-6.791c0-0.318-0.032-0.545-0.092-0.688
				c-0.06-0.138-0.171-0.209-0.331-0.209c-0.127,0-0.33,0.062-0.601,0.185h-0.027c-0.03,0-0.05-0.023-0.06-0.065
				c-0.013-0.044-0.008-0.071,0.018-0.076l1.683-0.802c0.018-0.011,0.04-0.013,0.063-0.013c0.023,0,0.044,0.011,0.077,0.03
				c0.029,0.023,0.045,0.049,0.045,0.074v8.356c0,0.252,0.016,0.445,0.06,0.565c0.037,0.125,0.112,0.212,0.23,0.263
				c0.115,0.054,0.285,0.082,0.523,0.082c0.029,0,0.036,0.023,0.036,0.077c0,0.05-0.007,0.078-0.036,0.078
				c-0.193,0-0.35-0.005-0.472-0.015l-0.735-0.014l-0.71,0.014c-0.125,0.01-0.29,0.015-0.501,0.015
				C109.307,91.399,109.293,91.371,109.293,91.321z"/>
			<linearGradient id="SVGID_17_" gradientUnits="userSpaceOnUse" x1="117.3542" y1="91.3994" x2="117.3542" y2="81.8743">
				<stop  offset="0" style="stop-color:#58452A"/>
				<stop  offset="0.4925" style="stop-color:#FFFFFF"/>
				<stop  offset="1" style="stop-color:#58452A"/>
			</linearGradient>
			<path style="fill:url(#SVGID_17_);" d="M116.233,91.321c0-0.054,0.012-0.077,0.04-0.077c0.236,0,0.412-0.028,0.521-0.076
				c0.117-0.045,0.196-0.133,0.242-0.262c0.04-0.125,0.063-0.32,0.063-0.572v-6.791c0-0.318-0.033-0.545-0.093-0.688
				c-0.058-0.138-0.172-0.209-0.329-0.209c-0.127,0-0.332,0.062-0.604,0.185h-0.024c-0.03,0-0.047-0.023-0.061-0.065
				c-0.013-0.044-0.006-0.071,0.022-0.076l1.679-0.802c0.018-0.011,0.043-0.013,0.065-0.013c0.018,0,0.042,0.011,0.074,0.03
				c0.033,0.023,0.048,0.049,0.048,0.074v8.356c0,0.252,0.016,0.445,0.057,0.565c0.038,0.125,0.115,0.212,0.229,0.263
				c0.116,0.054,0.289,0.082,0.528,0.082c0.025,0,0.036,0.023,0.036,0.077c0,0.05-0.01,0.078-0.036,0.078
				c-0.196,0-0.356-0.005-0.476-0.015l-0.735-0.014l-0.709,0.014c-0.123,0.01-0.29,0.015-0.497,0.015
				C116.245,91.399,116.233,91.371,116.233,91.321z"/>
			<linearGradient id="SVGID_18_" gradientUnits="userSpaceOnUse" x1="125.3254" y1="91.5593" x2="125.3254" y2="86.2097">
				<stop  offset="0" style="stop-color:#58452A"/>
				<stop  offset="0.4925" style="stop-color:#FFFFFF"/>
				<stop  offset="1" style="stop-color:#58452A"/>
			</linearGradient>
			<path style="fill:url(#SVGID_18_);" d="M127.401,90.662c0.027,0,0.05,0.015,0.072,0.045c0.02,0.031,0.026,0.062,0.01,0.086
				c-0.58,0.509-1.22,0.766-1.919,0.766c-0.51,0-0.942-0.12-1.301-0.355c-0.362-0.238-0.636-0.547-0.827-0.933
				c-0.187-0.387-0.277-0.797-0.277-1.236c0-0.518,0.122-0.993,0.367-1.424c0.243-0.437,0.581-0.779,1.003-1.031
				c0.423-0.247,0.892-0.37,1.402-0.37c0.488,0,0.867,0.129,1.129,0.392c0.262,0.262,0.396,0.632,0.396,1.106
				c0,0.122-0.01,0.207-0.034,0.263c-0.02,0.049-0.058,0.078-0.111,0.078l-3.259,0.012c-0.02,0.195-0.027,0.35-0.027,0.474
				c0,0.761,0.182,1.38,0.539,1.854c0.36,0.472,0.862,0.709,1.514,0.709c0.258,0,0.485-0.037,0.674-0.107
				c0.19-0.067,0.403-0.177,0.641-0.329H127.401z M124.563,86.845c-0.249,0.252-0.41,0.599-0.487,1.046l2.494-0.051
				c0-0.446-0.094-0.787-0.285-1.022c-0.194-0.229-0.454-0.346-0.791-0.346C125.119,86.471,124.812,86.595,124.563,86.845z"/>
			<linearGradient id="SVGID_19_" gradientUnits="userSpaceOnUse" x1="133.8719" y1="91.3994" x2="133.8719" y2="86.2097">
				<stop  offset="0" style="stop-color:#58452A"/>
				<stop  offset="0.4925" style="stop-color:#FFFFFF"/>
				<stop  offset="1" style="stop-color:#58452A"/>
			</linearGradient>
			<path style="fill:url(#SVGID_19_);" d="M135.759,86.363c0.176,0.108,0.26,0.236,0.26,0.385c0,0.113-0.033,0.209-0.111,0.29
				c-0.07,0.076-0.182,0.117-0.32,0.117c-0.077,0-0.145-0.017-0.203-0.044c-0.057-0.033-0.125-0.082-0.205-0.142
				c-0.079-0.071-0.15-0.122-0.224-0.158c-0.071-0.032-0.155-0.052-0.251-0.052c-0.109,0-0.23,0.05-0.359,0.147
				c-0.127,0.092-0.327,0.302-0.601,0.615v2.812c0,0.265,0.035,0.457,0.102,0.579c0.068,0.123,0.191,0.21,0.362,0.255
				c0.175,0.049,0.45,0.076,0.819,0.076c0.033,0,0.049,0.023,0.049,0.077c0,0.05-0.016,0.078-0.049,0.078
				c-0.282,0-0.508-0.005-0.674-0.015l-0.971-0.014l-0.723,0.014c-0.114,0.01-0.27,0.015-0.475,0.015
				c-0.023,0-0.038-0.029-0.038-0.078c0-0.054,0.015-0.077,0.038-0.077c0.236,0,0.412-0.028,0.527-0.076
				c0.115-0.045,0.192-0.131,0.229-0.255c0.042-0.122,0.06-0.314,0.06-0.579v-2.6c0-0.296-0.035-0.514-0.105-0.646
				c-0.069-0.131-0.187-0.195-0.354-0.195c-0.142,0-0.376,0.063-0.712,0.195h-0.025c-0.036,0-0.058-0.02-0.071-0.058
				c-0.012-0.038-0.003-0.065,0.031-0.087l1.525-0.721l0.078-0.012c0.082,0,0.162,0.098,0.252,0.303
				c0.085,0.201,0.127,0.457,0.127,0.777v0.007c0.363-0.418,0.65-0.705,0.859-0.859c0.207-0.153,0.41-0.229,0.605-0.229
				C135.397,86.21,135.584,86.26,135.759,86.363z"/>
			<linearGradient id="SVGID_20_" gradientUnits="userSpaceOnUse" x1="142.5443" y1="95.0916" x2="142.5443" y2="86.3296">
				<stop  offset="0" style="stop-color:#58452A"/>
				<stop  offset="0.4925" style="stop-color:#FFFFFF"/>
				<stop  offset="1" style="stop-color:#58452A"/>
			</linearGradient>
			<path style="fill:url(#SVGID_20_);" d="M145.625,86.407c0,0.051-0.014,0.077-0.04,0.077c-0.216,0-0.402,0.082-0.562,0.236
				c-0.16,0.159-0.31,0.417-0.448,0.777l-1.604,4.269c-0.323,0.852-0.628,1.514-0.91,1.995c-0.285,0.475-0.579,0.817-0.882,1.022
				c-0.301,0.207-0.651,0.309-1.046,0.309c-0.189,0-0.35-0.045-0.479-0.13c-0.127-0.087-0.189-0.216-0.189-0.382
				c0-0.125,0.038-0.219,0.12-0.289c0.076-0.072,0.172-0.109,0.287-0.109c0.117,0,0.209,0.015,0.29,0.042
				c0.077,0.025,0.163,0.069,0.247,0.13c0.018,0.008,0.069,0.035,0.152,0.078c0.083,0.043,0.187,0.065,0.31,0.065
				c0.209,0,0.409-0.089,0.596-0.274c0.19-0.185,0.388-0.494,0.604-0.926c0.212-0.434,0.467-1.033,0.757-1.796l-2.001-4.086
				c-0.196-0.387-0.354-0.635-0.457-0.754c-0.103-0.12-0.24-0.18-0.409-0.18c-0.015,0-0.027-0.025-0.027-0.077
				c0-0.056,0.012-0.077,0.027-0.077l0.447,0.009c0.107,0.011,0.25,0.013,0.435,0.013l0.839-0.013
				c0.122-0.005,0.295-0.009,0.517-0.009c0.016,0,0.025,0.022,0.025,0.077c0,0.051-0.009,0.077-0.025,0.077
				c-0.512,0-0.767,0.103-0.767,0.303c0,0.05,0.027,0.122,0.069,0.21l1.734,3.56l1.049-3.025c0.075-0.209,0.109-0.374,0.109-0.494
				c0-0.203-0.082-0.343-0.239-0.432c-0.156-0.078-0.418-0.123-0.775-0.123c-0.018,0-0.023-0.025-0.023-0.077
				c0-0.056,0.005-0.077,0.023-0.077c0.237,0,0.417,0.003,0.539,0.009l0.79,0.013l0.475-0.013c0.087-0.005,0.22-0.009,0.402-0.009
				C145.611,86.33,145.625,86.351,145.625,86.407z"/>
		</g>
	</g>
</g>
</svg>
